%TF.GenerationSoftware,KiCad,Pcbnew,7.0.10*%
%TF.CreationDate,2024-02-13T16:39:49-08:00*%
%TF.ProjectId,FinalProject,46696e61-6c50-4726-9f6a-6563742e6b69,v2*%
%TF.SameCoordinates,Original*%
%TF.FileFunction,Copper,L1,Top*%
%TF.FilePolarity,Positive*%
%FSLAX46Y46*%
G04 Gerber Fmt 4.6, Leading zero omitted, Abs format (unit mm)*
G04 Created by KiCad (PCBNEW 7.0.10) date 2024-02-13 16:39:49*
%MOMM*%
%LPD*%
G01*
G04 APERTURE LIST*
G04 Aperture macros list*
%AMRoundRect*
0 Rectangle with rounded corners*
0 $1 Rounding radius*
0 $2 $3 $4 $5 $6 $7 $8 $9 X,Y pos of 4 corners*
0 Add a 4 corners polygon primitive as box body*
4,1,4,$2,$3,$4,$5,$6,$7,$8,$9,$2,$3,0*
0 Add four circle primitives for the rounded corners*
1,1,$1+$1,$2,$3*
1,1,$1+$1,$4,$5*
1,1,$1+$1,$6,$7*
1,1,$1+$1,$8,$9*
0 Add four rect primitives between the rounded corners*
20,1,$1+$1,$2,$3,$4,$5,0*
20,1,$1+$1,$4,$5,$6,$7,0*
20,1,$1+$1,$6,$7,$8,$9,0*
20,1,$1+$1,$8,$9,$2,$3,0*%
G04 Aperture macros list end*
%TA.AperFunction,SMDPad,CuDef*%
%ADD10R,1.000000X1.075000*%
%TD*%
%TA.AperFunction,SMDPad,CuDef*%
%ADD11R,1.500000X1.240000*%
%TD*%
%TA.AperFunction,SMDPad,CuDef*%
%ADD12R,1.075000X1.000000*%
%TD*%
%TA.AperFunction,ComponentPad*%
%ADD13O,3.556000X1.778000*%
%TD*%
%TA.AperFunction,SMDPad,CuDef*%
%ADD14R,0.525000X0.600000*%
%TD*%
%TA.AperFunction,ComponentPad*%
%ADD15C,1.625000*%
%TD*%
%TA.AperFunction,SMDPad,CuDef*%
%ADD16RoundRect,0.070000X0.070000X-0.330000X0.070000X0.330000X-0.070000X0.330000X-0.070000X-0.330000X0*%
%TD*%
%TA.AperFunction,SMDPad,CuDef*%
%ADD17RoundRect,0.070000X-0.330000X-0.070000X0.330000X-0.070000X0.330000X0.070000X-0.330000X0.070000X0*%
%TD*%
%TA.AperFunction,SMDPad,CuDef*%
%ADD18RoundRect,0.070000X-0.070000X0.330000X-0.070000X-0.330000X0.070000X-0.330000X0.070000X0.330000X0*%
%TD*%
%TA.AperFunction,SMDPad,CuDef*%
%ADD19RoundRect,0.070000X0.330000X0.070000X-0.330000X0.070000X-0.330000X-0.070000X0.330000X-0.070000X0*%
%TD*%
%TA.AperFunction,SMDPad,CuDef*%
%ADD20R,2.500000X2.500000*%
%TD*%
%TA.AperFunction,ViaPad*%
%ADD21C,0.800000*%
%TD*%
%TA.AperFunction,Conductor*%
%ADD22C,0.250000*%
%TD*%
%TA.AperFunction,Conductor*%
%ADD23C,0.200000*%
%TD*%
G04 APERTURE END LIST*
D10*
%TO.P,C4,2,2*%
%TO.N,GND*%
X107975000Y-113300000D03*
%TO.P,C4,1,1*%
%TO.N,/REGOUT*%
X107975000Y-111600000D03*
%TD*%
D11*
%TO.P,C7,1,1*%
%TO.N,/3.3V*%
X114808000Y-97216000D03*
%TO.P,C7,2,2*%
%TO.N,GND*%
X114808000Y-95316000D03*
%TD*%
D12*
%TO.P,R2,1*%
%TO.N,/SDA_3V*%
X117006000Y-103759000D03*
%TO.P,R2,2*%
%TO.N,Net-(U1-GPIO4_A3_D3_SDA)*%
X118706000Y-103759000D03*
%TD*%
D13*
%TO.P,U1,14,GPIO44_D7_RX*%
%TO.N,unconnected-(U1-GPIO44_D7_RX-Pad14)*%
X138938000Y-108712000D03*
%TO.P,U1,13,GPIO7_A8_D8_SCK*%
%TO.N,unconnected-(U1-GPIO7_A8_D8_SCK-Pad13)*%
X138938000Y-106172000D03*
%TO.P,U1,12,GPIO8_A9_D9_CIPO*%
%TO.N,unconnected-(U1-GPIO8_A9_D9_CIPO-Pad12)*%
X138938000Y-103632000D03*
%TO.P,U1,11,GPIO9_A10_D10_COPI*%
%TO.N,unconnected-(U1-GPIO9_A10_D10_COPI-Pad11)*%
X138938000Y-101092000D03*
%TO.P,U1,10,3V3*%
%TO.N,/3.3V*%
X138938000Y-98552000D03*
%TO.P,U1,9,GND*%
%TO.N,GND*%
X138938000Y-96012000D03*
%TO.P,U1,8,5V*%
%TO.N,unconnected-(U1-5V-Pad8)*%
X138938000Y-93472000D03*
%TO.P,U1,7,GPIO43_TX_D6*%
%TO.N,unconnected-(U1-GPIO43_TX_D6-Pad7)*%
X122174000Y-108712000D03*
%TO.P,U1,6,GPIO6_A5_D5_SCL*%
%TO.N,Net-(U1-GPIO6_A5_D5_SCL)*%
X122174000Y-106172000D03*
%TO.P,U1,5,GPIO4_A3_D3_SDA*%
%TO.N,Net-(U1-GPIO4_A3_D3_SDA)*%
X122174000Y-103632000D03*
%TO.P,U1,4,GPIO4_A3_D3*%
%TO.N,Net-(IC1-DATA)*%
X122174000Y-101092000D03*
%TO.P,U1,3,GPIO3_A2_D2*%
%TO.N,Net-(IC1-WS)*%
X122174000Y-98552000D03*
%TO.P,U1,2,GPIO2_A1_D1*%
%TO.N,unconnected-(U1-GPIO2_A1_D1-Pad2)*%
X122174000Y-96012000D03*
%TO.P,U1,1,GPIO1_A0_D0*%
%TO.N,Net-(IC1-BCLK)*%
X122174000Y-93472000D03*
%TD*%
D14*
%TO.P,IC1,1,WS*%
%TO.N,Net-(IC1-WS)*%
X113414000Y-103367000D03*
%TO.P,IC1,2,SELECT*%
%TO.N,/SELECT*%
X112564000Y-103367000D03*
D15*
%TO.P,IC1,3,GND*%
%TO.N,GND*%
X111304000Y-104267000D03*
D14*
%TO.P,IC1,4,BCLK*%
%TO.N,Net-(IC1-BCLK)*%
X112564000Y-105167000D03*
%TO.P,IC1,5,VDD*%
%TO.N,/3.3V*%
X113414000Y-105167000D03*
%TO.P,IC1,6,DATA*%
%TO.N,Net-(IC1-DATA)*%
X113414000Y-104267000D03*
%TD*%
D16*
%TO.P,U3,1,CLKIN*%
%TO.N,/CLKIN*%
X113391000Y-107728000D03*
%TO.P,U3,2*%
%TO.N,N/C*%
X112891000Y-107728000D03*
%TO.P,U3,3*%
X112391000Y-107728000D03*
%TO.P,U3,4*%
X111891000Y-107728000D03*
%TO.P,U3,5*%
X111391000Y-107728000D03*
%TO.P,U3,6,AUX_DA*%
%TO.N,/SDA_EXT*%
X110891000Y-107728000D03*
D17*
%TO.P,U3,7,AUX_CL*%
%TO.N,/SCL_EXT*%
X110141000Y-108478000D03*
%TO.P,U3,8,VLOGIC*%
%TO.N,/3.3V*%
X110141000Y-108978000D03*
%TO.P,U3,9,AD0*%
%TO.N,/AD0*%
X110141000Y-109478000D03*
%TO.P,U3,10,REGOUT*%
%TO.N,/REGOUT*%
X110141000Y-109978000D03*
%TO.P,U3,11,FSYNC*%
%TO.N,/FSYNC_IN*%
X110141000Y-110478000D03*
%TO.P,U3,12,INT*%
%TO.N,/INT*%
X110141000Y-110978000D03*
D18*
%TO.P,U3,13,VDD*%
%TO.N,/3.3V*%
X110891000Y-111728000D03*
%TO.P,U3,14*%
%TO.N,N/C*%
X111391000Y-111728000D03*
%TO.P,U3,15*%
X111891000Y-111728000D03*
%TO.P,U3,16*%
X112391000Y-111728000D03*
%TO.P,U3,17*%
X112891000Y-111728000D03*
%TO.P,U3,18,GND*%
%TO.N,GND*%
X113391000Y-111728000D03*
D19*
%TO.P,U3,19,RSVD@1*%
%TO.N,unconnected-(U3-RSVD@1-Pad19)*%
X114141000Y-110978000D03*
%TO.P,U3,20,CPOUT*%
%TO.N,/CPOUT*%
X114141000Y-110478000D03*
%TO.P,U3,21,RSVD@2*%
%TO.N,unconnected-(U3-RSVD@2-Pad21)*%
X114141000Y-109978000D03*
%TO.P,U3,22,RSVD@3*%
%TO.N,unconnected-(U3-RSVD@3-Pad22)*%
X114141000Y-109478000D03*
%TO.P,U3,23,SCL*%
%TO.N,/SCL_3V*%
X114141000Y-108978000D03*
%TO.P,U3,24,SDA*%
%TO.N,/SDA_3V*%
X114141000Y-108478000D03*
D20*
%TO.P,U3,THERM,THERMAL*%
%TO.N,GND*%
X112141000Y-109728000D03*
%TD*%
D10*
%TO.P,C5,1,1*%
%TO.N,/CPOUT*%
X116700000Y-111600000D03*
%TO.P,C5,2,2*%
%TO.N,GND*%
X116700000Y-113300000D03*
%TD*%
D12*
%TO.P,R1,1,1*%
%TO.N,GND*%
X110910000Y-100584000D03*
%TO.P,R1,2,2*%
%TO.N,/SELECT*%
X112610000Y-100584000D03*
%TD*%
D10*
%TO.P,R3,1*%
%TO.N,Net-(U1-GPIO6_A5_D5_SCL)*%
X118110000Y-107100000D03*
%TO.P,R3,2*%
%TO.N,/SCL_3V*%
X118110000Y-108800000D03*
%TD*%
D11*
%TO.P,C6,1,1*%
%TO.N,/3.3V*%
X117729000Y-97216000D03*
%TO.P,C6,2,2*%
%TO.N,GND*%
X117729000Y-95316000D03*
%TD*%
D21*
%TO.N,/3.3V*%
X110142800Y-111984200D03*
%TD*%
D22*
%TO.N,GND*%
X116700000Y-113300000D02*
X113400000Y-113300000D01*
X113400000Y-113300000D02*
X107975000Y-113300000D01*
X113391000Y-111728000D02*
X113391000Y-113291000D01*
X113391000Y-113291000D02*
X113400000Y-113300000D01*
%TO.N,/3.3V*%
X113414000Y-105167000D02*
X113414000Y-106680000D01*
X113414000Y-106680000D02*
X108930000Y-106680000D01*
X108930000Y-106680000D02*
X108925000Y-106675000D01*
X108925000Y-106675000D02*
X108900000Y-106700000D01*
X108900000Y-106700000D02*
X108900000Y-108975000D01*
X108900000Y-108975000D02*
X108903000Y-108978000D01*
X108903000Y-108978000D02*
X110141000Y-108978000D01*
%TO.N,/REGOUT*%
X107978000Y-109978000D02*
X107975000Y-109975000D01*
X110141000Y-109978000D02*
X107978000Y-109978000D01*
X107975000Y-109975000D02*
X107975000Y-111600000D01*
%TO.N,/SDA_3V*%
X117006000Y-108478000D02*
X117006000Y-103759000D01*
X114141000Y-108478000D02*
X117006000Y-108478000D01*
%TO.N,/SCL_3V*%
X117932000Y-108978000D02*
X118110000Y-108800000D01*
X114141000Y-108978000D02*
X117932000Y-108978000D01*
%TO.N,/CPOUT*%
X116700000Y-110475000D02*
X116700000Y-111600000D01*
X116181000Y-110475000D02*
X116700000Y-110475000D01*
X116178000Y-110478000D02*
X116181000Y-110475000D01*
X114141000Y-110478000D02*
X116178000Y-110478000D01*
%TO.N,/REGOUT*%
X110119000Y-110000000D02*
X110141000Y-109978000D01*
%TO.N,/SELECT*%
X112564000Y-100630000D02*
X112564000Y-103367000D01*
X112610000Y-100584000D02*
X112564000Y-100630000D01*
D23*
%TO.N,/3.3V*%
X124400000Y-110400000D02*
X124400000Y-102362000D01*
X135800000Y-110400000D02*
X124400000Y-110400000D01*
X135800000Y-98600000D02*
X135800000Y-110400000D01*
X138128000Y-98600000D02*
X135800000Y-98600000D01*
X138176000Y-98552000D02*
X138128000Y-98600000D01*
X124400000Y-97298600D02*
X124400000Y-102362000D01*
X117812000Y-97298600D02*
X124400000Y-97298600D01*
D22*
X117729000Y-97216000D02*
X114808000Y-97216000D01*
X117812000Y-97298600D02*
X117729000Y-97216000D01*
X115813000Y-105167000D02*
X113414000Y-105167000D01*
X115813000Y-102362000D02*
X115813000Y-105167000D01*
D23*
X124400000Y-102362000D02*
X115813000Y-102362000D01*
D22*
X110634800Y-111984200D02*
X110891000Y-111728000D01*
X110142800Y-111984200D02*
X110634800Y-111984200D01*
D23*
%TO.N,GND*%
X141859000Y-96012000D02*
X138176000Y-96012000D01*
X141859000Y-113300000D02*
X141859000Y-96012000D01*
D22*
X116700000Y-113300000D02*
X141859000Y-113300000D01*
D23*
X136812000Y-96012000D02*
X138176000Y-96012000D01*
X136800000Y-96000000D02*
X136812000Y-96012000D01*
X124400000Y-96000000D02*
X136800000Y-96000000D01*
X124400000Y-94742000D02*
X124400000Y-96000000D01*
X118303000Y-94742000D02*
X124400000Y-94742000D01*
X117729000Y-95316000D02*
X118303000Y-94742000D01*
D22*
X138049000Y-96139000D02*
X138176000Y-96012000D01*
X110910000Y-103873000D02*
X110910000Y-100584000D01*
X111304000Y-104267000D02*
X110910000Y-103873000D01*
X114747000Y-95377000D02*
X114808000Y-95316000D01*
X110910000Y-95377000D02*
X114747000Y-95377000D01*
X110910000Y-100584000D02*
X110910000Y-95377000D01*
X114808000Y-95316000D02*
X117729000Y-95316000D01*
X113391000Y-110978000D02*
X112141000Y-109728000D01*
X113391000Y-111728000D02*
X113391000Y-110978000D01*
%TO.N,Net-(U1-GPIO6_A5_D5_SCL)*%
X118110000Y-106172000D02*
X118110000Y-107100000D01*
X122936000Y-106172000D02*
X118110000Y-106172000D01*
%TO.N,Net-(U1-GPIO4_A3_D3_SDA)*%
X122809000Y-103759000D02*
X118706000Y-103759000D01*
X122936000Y-103632000D02*
X122809000Y-103759000D01*
%TO.N,Net-(IC1-DATA)*%
X115189000Y-104267000D02*
X113414000Y-104267000D01*
X115189000Y-101092000D02*
X115189000Y-104267000D01*
X122936000Y-101092000D02*
X115189000Y-101092000D01*
%TO.N,Net-(IC1-WS)*%
X114300000Y-98552000D02*
X122936000Y-98552000D01*
X114300000Y-103367000D02*
X114300000Y-98552000D01*
X113414000Y-103367000D02*
X114300000Y-103367000D01*
%TO.N,Net-(IC1-BCLK)*%
X109474000Y-93472000D02*
X122936000Y-93472000D01*
X109474000Y-106172000D02*
X109474000Y-93472000D01*
X112564000Y-106172000D02*
X109474000Y-106172000D01*
X112564000Y-105167000D02*
X112564000Y-106172000D01*
%TD*%
M02*
