%TF.GenerationSoftware,KiCad,Pcbnew,7.0.10*%
%TF.CreationDate,2024-02-13T16:39:49-08:00*%
%TF.ProjectId,FinalProject,46696e61-6c50-4726-9f6a-6563742e6b69,v2*%
%TF.SameCoordinates,Original*%
%TF.FileFunction,Paste,Top*%
%TF.FilePolarity,Positive*%
%FSLAX46Y46*%
G04 Gerber Fmt 4.6, Leading zero omitted, Abs format (unit mm)*
G04 Created by KiCad (PCBNEW 7.0.10) date 2024-02-13 16:39:49*
%MOMM*%
%LPD*%
G01*
G04 APERTURE LIST*
G04 Aperture macros list*
%AMRoundRect*
0 Rectangle with rounded corners*
0 $1 Rounding radius*
0 $2 $3 $4 $5 $6 $7 $8 $9 X,Y pos of 4 corners*
0 Add a 4 corners polygon primitive as box body*
4,1,4,$2,$3,$4,$5,$6,$7,$8,$9,$2,$3,0*
0 Add four circle primitives for the rounded corners*
1,1,$1+$1,$2,$3*
1,1,$1+$1,$4,$5*
1,1,$1+$1,$6,$7*
1,1,$1+$1,$8,$9*
0 Add four rect primitives between the rounded corners*
20,1,$1+$1,$2,$3,$4,$5,0*
20,1,$1+$1,$4,$5,$6,$7,0*
20,1,$1+$1,$6,$7,$8,$9,0*
20,1,$1+$1,$8,$9,$2,$3,0*%
G04 Aperture macros list end*
%ADD10C,0.300000*%
%ADD11R,1.000000X1.075000*%
%ADD12R,1.500000X1.240000*%
%ADD13R,1.075000X1.000000*%
%ADD14R,0.525000X0.600000*%
%ADD15RoundRect,0.070000X0.070000X-0.330000X0.070000X0.330000X-0.070000X0.330000X-0.070000X-0.330000X0*%
%ADD16RoundRect,0.070000X-0.330000X-0.070000X0.330000X-0.070000X0.330000X0.070000X-0.330000X0.070000X0*%
%ADD17RoundRect,0.070000X-0.070000X0.330000X-0.070000X-0.330000X0.070000X-0.330000X0.070000X0.330000X0*%
%ADD18RoundRect,0.070000X0.330000X0.070000X-0.330000X0.070000X-0.330000X-0.070000X0.330000X-0.070000X0*%
G04 APERTURE END LIST*
D10*
%TO.C,IC1*%
X111534001Y-103647001D02*
G75*
G03*
X111084000Y-103647001I-225001J-600006D01*
G01*
X111924000Y-104487000D02*
G75*
G03*
X111924000Y-104037000I-600004J225000D01*
G01*
X110684000Y-104036999D02*
G75*
G03*
X110684000Y-104487000I600007J-225000D01*
G01*
X111073999Y-104886999D02*
G75*
G03*
X111524000Y-104887000I225001J599999D01*
G01*
%TO.C,U3*%
G36*
X113341000Y-109128000D02*
G01*
X112741000Y-109128000D01*
X112741000Y-108528000D01*
X113341000Y-108528000D01*
X113341000Y-109128000D01*
G37*
G36*
X112441000Y-109128000D02*
G01*
X111841000Y-109128000D01*
X111841000Y-108528000D01*
X112441000Y-108528000D01*
X112441000Y-109128000D01*
G37*
G36*
X111541000Y-109128000D02*
G01*
X110941000Y-109128000D01*
X110941000Y-108528000D01*
X111541000Y-108528000D01*
X111541000Y-109128000D01*
G37*
G36*
X113341000Y-110028000D02*
G01*
X112741000Y-110028000D01*
X112741000Y-109428000D01*
X113341000Y-109428000D01*
X113341000Y-110028000D01*
G37*
G36*
X112441000Y-110028000D02*
G01*
X111841000Y-110028000D01*
X111841000Y-109428000D01*
X112441000Y-109428000D01*
X112441000Y-110028000D01*
G37*
G36*
X111541000Y-110028000D02*
G01*
X110941000Y-110028000D01*
X110941000Y-109428000D01*
X111541000Y-109428000D01*
X111541000Y-110028000D01*
G37*
G36*
X113341000Y-110928000D02*
G01*
X112741000Y-110928000D01*
X112741000Y-110328000D01*
X113341000Y-110328000D01*
X113341000Y-110928000D01*
G37*
G36*
X112441000Y-110928000D02*
G01*
X111841000Y-110928000D01*
X111841000Y-110328000D01*
X112441000Y-110328000D01*
X112441000Y-110928000D01*
G37*
G36*
X111541000Y-110928000D02*
G01*
X110941000Y-110928000D01*
X110941000Y-110328000D01*
X111541000Y-110328000D01*
X111541000Y-110928000D01*
G37*
%TD*%
D11*
%TO.C,C4*%
X107975000Y-113300000D03*
X107975000Y-111600000D03*
%TD*%
D12*
%TO.C,C7*%
X114808000Y-97216000D03*
X114808000Y-95316000D03*
%TD*%
D13*
%TO.C,R2*%
X117006000Y-103759000D03*
X118706000Y-103759000D03*
%TD*%
D14*
%TO.C,IC1*%
X113414000Y-103367000D03*
X112564000Y-103367000D03*
X112564000Y-105167000D03*
X113414000Y-105167000D03*
X113414000Y-104267000D03*
%TD*%
D15*
%TO.C,U3*%
X113391000Y-107728000D03*
X112891000Y-107728000D03*
X112391000Y-107728000D03*
X111891000Y-107728000D03*
X111391000Y-107728000D03*
X110891000Y-107728000D03*
D16*
X110141000Y-108478000D03*
X110141000Y-108978000D03*
X110141000Y-109478000D03*
X110141000Y-109978000D03*
X110141000Y-110478000D03*
X110141000Y-110978000D03*
D17*
X110891000Y-111728000D03*
X111391000Y-111728000D03*
X111891000Y-111728000D03*
X112391000Y-111728000D03*
X112891000Y-111728000D03*
X113391000Y-111728000D03*
D18*
X114141000Y-110978000D03*
X114141000Y-110478000D03*
X114141000Y-109978000D03*
X114141000Y-109478000D03*
X114141000Y-108978000D03*
X114141000Y-108478000D03*
%TD*%
D11*
%TO.C,C5*%
X116700000Y-111600000D03*
X116700000Y-113300000D03*
%TD*%
D13*
%TO.C,R1*%
X110910000Y-100584000D03*
X112610000Y-100584000D03*
%TD*%
D11*
%TO.C,R3*%
X118110000Y-107100000D03*
X118110000Y-108800000D03*
%TD*%
D12*
%TO.C,C6*%
X117729000Y-97216000D03*
X117729000Y-95316000D03*
%TD*%
M02*
