%TF.GenerationSoftware,KiCad,Pcbnew,7.0.10*%
%TF.CreationDate,2024-02-13T16:39:49-08:00*%
%TF.ProjectId,FinalProject,46696e61-6c50-4726-9f6a-6563742e6b69,v2*%
%TF.SameCoordinates,Original*%
%TF.FileFunction,Legend,Top*%
%TF.FilePolarity,Positive*%
%FSLAX46Y46*%
G04 Gerber Fmt 4.6, Leading zero omitted, Abs format (unit mm)*
G04 Created by KiCad (PCBNEW 7.0.10) date 2024-02-13 16:39:49*
%MOMM*%
%LPD*%
G01*
G04 APERTURE LIST*
%ADD10C,0.125000*%
%ADD11C,0.146304*%
%ADD12C,0.100000*%
%ADD13C,0.101600*%
%ADD14C,0.304800*%
%ADD15C,0.127000*%
%ADD16C,0.203200*%
G04 APERTURE END LIST*
D10*
X107777474Y-90784452D02*
X108015569Y-90784452D01*
X107729855Y-90927309D02*
X107896521Y-90427309D01*
X107896521Y-90427309D02*
X108063188Y-90927309D01*
X108206045Y-90903500D02*
X108253664Y-90927309D01*
X108253664Y-90927309D02*
X108348902Y-90927309D01*
X108348902Y-90927309D02*
X108396521Y-90903500D01*
X108396521Y-90903500D02*
X108420330Y-90855880D01*
X108420330Y-90855880D02*
X108420330Y-90832071D01*
X108420330Y-90832071D02*
X108396521Y-90784452D01*
X108396521Y-90784452D02*
X108348902Y-90760642D01*
X108348902Y-90760642D02*
X108277473Y-90760642D01*
X108277473Y-90760642D02*
X108229854Y-90736833D01*
X108229854Y-90736833D02*
X108206045Y-90689214D01*
X108206045Y-90689214D02*
X108206045Y-90665404D01*
X108206045Y-90665404D02*
X108229854Y-90617785D01*
X108229854Y-90617785D02*
X108277473Y-90593976D01*
X108277473Y-90593976D02*
X108348902Y-90593976D01*
X108348902Y-90593976D02*
X108396521Y-90617785D01*
X108634616Y-90927309D02*
X108634616Y-90427309D01*
X108848902Y-90927309D02*
X108848902Y-90665404D01*
X108848902Y-90665404D02*
X108825092Y-90617785D01*
X108825092Y-90617785D02*
X108777473Y-90593976D01*
X108777473Y-90593976D02*
X108706045Y-90593976D01*
X108706045Y-90593976D02*
X108658426Y-90617785D01*
X108658426Y-90617785D02*
X108634616Y-90641595D01*
X109039378Y-90593976D02*
X109134616Y-90927309D01*
X109134616Y-90927309D02*
X109229854Y-90689214D01*
X109229854Y-90689214D02*
X109325092Y-90927309D01*
X109325092Y-90927309D02*
X109420330Y-90593976D01*
X109610807Y-90927309D02*
X109610807Y-90593976D01*
X109610807Y-90427309D02*
X109586998Y-90451119D01*
X109586998Y-90451119D02*
X109610807Y-90474928D01*
X109610807Y-90474928D02*
X109634617Y-90451119D01*
X109634617Y-90451119D02*
X109610807Y-90427309D01*
X109610807Y-90427309D02*
X109610807Y-90474928D01*
X109848902Y-90593976D02*
X109848902Y-90927309D01*
X109848902Y-90641595D02*
X109872712Y-90617785D01*
X109872712Y-90617785D02*
X109920331Y-90593976D01*
X109920331Y-90593976D02*
X109991759Y-90593976D01*
X109991759Y-90593976D02*
X110039378Y-90617785D01*
X110039378Y-90617785D02*
X110063188Y-90665404D01*
X110063188Y-90665404D02*
X110063188Y-90927309D01*
X110682235Y-90927309D02*
X110682235Y-90427309D01*
X110682235Y-90427309D02*
X110967949Y-90927309D01*
X110967949Y-90927309D02*
X110967949Y-90427309D01*
X111206045Y-90927309D02*
X111206045Y-90593976D01*
X111206045Y-90427309D02*
X111182236Y-90451119D01*
X111182236Y-90451119D02*
X111206045Y-90474928D01*
X111206045Y-90474928D02*
X111229855Y-90451119D01*
X111229855Y-90451119D02*
X111206045Y-90427309D01*
X111206045Y-90427309D02*
X111206045Y-90474928D01*
X111420331Y-90903500D02*
X111467950Y-90927309D01*
X111467950Y-90927309D02*
X111563188Y-90927309D01*
X111563188Y-90927309D02*
X111610807Y-90903500D01*
X111610807Y-90903500D02*
X111634616Y-90855880D01*
X111634616Y-90855880D02*
X111634616Y-90832071D01*
X111634616Y-90832071D02*
X111610807Y-90784452D01*
X111610807Y-90784452D02*
X111563188Y-90760642D01*
X111563188Y-90760642D02*
X111491759Y-90760642D01*
X111491759Y-90760642D02*
X111444140Y-90736833D01*
X111444140Y-90736833D02*
X111420331Y-90689214D01*
X111420331Y-90689214D02*
X111420331Y-90665404D01*
X111420331Y-90665404D02*
X111444140Y-90617785D01*
X111444140Y-90617785D02*
X111491759Y-90593976D01*
X111491759Y-90593976D02*
X111563188Y-90593976D01*
X111563188Y-90593976D02*
X111610807Y-90617785D01*
X111848902Y-90927309D02*
X111848902Y-90427309D01*
X112063188Y-90927309D02*
X112063188Y-90665404D01*
X112063188Y-90665404D02*
X112039378Y-90617785D01*
X112039378Y-90617785D02*
X111991759Y-90593976D01*
X111991759Y-90593976D02*
X111920331Y-90593976D01*
X111920331Y-90593976D02*
X111872712Y-90617785D01*
X111872712Y-90617785D02*
X111848902Y-90641595D01*
X112515569Y-90927309D02*
X112515569Y-90665404D01*
X112515569Y-90665404D02*
X112491759Y-90617785D01*
X112491759Y-90617785D02*
X112444140Y-90593976D01*
X112444140Y-90593976D02*
X112348902Y-90593976D01*
X112348902Y-90593976D02*
X112301283Y-90617785D01*
X112515569Y-90903500D02*
X112467950Y-90927309D01*
X112467950Y-90927309D02*
X112348902Y-90927309D01*
X112348902Y-90927309D02*
X112301283Y-90903500D01*
X112301283Y-90903500D02*
X112277474Y-90855880D01*
X112277474Y-90855880D02*
X112277474Y-90808261D01*
X112277474Y-90808261D02*
X112301283Y-90760642D01*
X112301283Y-90760642D02*
X112348902Y-90736833D01*
X112348902Y-90736833D02*
X112467950Y-90736833D01*
X112467950Y-90736833D02*
X112515569Y-90713023D01*
X112967950Y-90927309D02*
X112967950Y-90427309D01*
X112967950Y-90903500D02*
X112920331Y-90927309D01*
X112920331Y-90927309D02*
X112825093Y-90927309D01*
X112825093Y-90927309D02*
X112777474Y-90903500D01*
X112777474Y-90903500D02*
X112753664Y-90879690D01*
X112753664Y-90879690D02*
X112729855Y-90832071D01*
X112729855Y-90832071D02*
X112729855Y-90689214D01*
X112729855Y-90689214D02*
X112753664Y-90641595D01*
X112753664Y-90641595D02*
X112777474Y-90617785D01*
X112777474Y-90617785D02*
X112825093Y-90593976D01*
X112825093Y-90593976D02*
X112920331Y-90593976D01*
X112920331Y-90593976D02*
X112967950Y-90617785D01*
X107801283Y-91732309D02*
X107801283Y-91232309D01*
X107801283Y-91232309D02*
X107991759Y-91232309D01*
X107991759Y-91232309D02*
X108039378Y-91256119D01*
X108039378Y-91256119D02*
X108063188Y-91279928D01*
X108063188Y-91279928D02*
X108086997Y-91327547D01*
X108086997Y-91327547D02*
X108086997Y-91398976D01*
X108086997Y-91398976D02*
X108063188Y-91446595D01*
X108063188Y-91446595D02*
X108039378Y-91470404D01*
X108039378Y-91470404D02*
X107991759Y-91494214D01*
X107991759Y-91494214D02*
X107801283Y-91494214D01*
X108586997Y-91684690D02*
X108563188Y-91708500D01*
X108563188Y-91708500D02*
X108491759Y-91732309D01*
X108491759Y-91732309D02*
X108444140Y-91732309D01*
X108444140Y-91732309D02*
X108372712Y-91708500D01*
X108372712Y-91708500D02*
X108325093Y-91660880D01*
X108325093Y-91660880D02*
X108301283Y-91613261D01*
X108301283Y-91613261D02*
X108277474Y-91518023D01*
X108277474Y-91518023D02*
X108277474Y-91446595D01*
X108277474Y-91446595D02*
X108301283Y-91351357D01*
X108301283Y-91351357D02*
X108325093Y-91303738D01*
X108325093Y-91303738D02*
X108372712Y-91256119D01*
X108372712Y-91256119D02*
X108444140Y-91232309D01*
X108444140Y-91232309D02*
X108491759Y-91232309D01*
X108491759Y-91232309D02*
X108563188Y-91256119D01*
X108563188Y-91256119D02*
X108586997Y-91279928D01*
X108967950Y-91470404D02*
X109039378Y-91494214D01*
X109039378Y-91494214D02*
X109063188Y-91518023D01*
X109063188Y-91518023D02*
X109086997Y-91565642D01*
X109086997Y-91565642D02*
X109086997Y-91637071D01*
X109086997Y-91637071D02*
X109063188Y-91684690D01*
X109063188Y-91684690D02*
X109039378Y-91708500D01*
X109039378Y-91708500D02*
X108991759Y-91732309D01*
X108991759Y-91732309D02*
X108801283Y-91732309D01*
X108801283Y-91732309D02*
X108801283Y-91232309D01*
X108801283Y-91232309D02*
X108967950Y-91232309D01*
X108967950Y-91232309D02*
X109015569Y-91256119D01*
X109015569Y-91256119D02*
X109039378Y-91279928D01*
X109039378Y-91279928D02*
X109063188Y-91327547D01*
X109063188Y-91327547D02*
X109063188Y-91375166D01*
X109063188Y-91375166D02*
X109039378Y-91422785D01*
X109039378Y-91422785D02*
X109015569Y-91446595D01*
X109015569Y-91446595D02*
X108967950Y-91470404D01*
X108967950Y-91470404D02*
X108801283Y-91470404D01*
X109658426Y-91708500D02*
X109729854Y-91732309D01*
X109729854Y-91732309D02*
X109848902Y-91732309D01*
X109848902Y-91732309D02*
X109896521Y-91708500D01*
X109896521Y-91708500D02*
X109920330Y-91684690D01*
X109920330Y-91684690D02*
X109944140Y-91637071D01*
X109944140Y-91637071D02*
X109944140Y-91589452D01*
X109944140Y-91589452D02*
X109920330Y-91541833D01*
X109920330Y-91541833D02*
X109896521Y-91518023D01*
X109896521Y-91518023D02*
X109848902Y-91494214D01*
X109848902Y-91494214D02*
X109753664Y-91470404D01*
X109753664Y-91470404D02*
X109706045Y-91446595D01*
X109706045Y-91446595D02*
X109682235Y-91422785D01*
X109682235Y-91422785D02*
X109658426Y-91375166D01*
X109658426Y-91375166D02*
X109658426Y-91327547D01*
X109658426Y-91327547D02*
X109682235Y-91279928D01*
X109682235Y-91279928D02*
X109706045Y-91256119D01*
X109706045Y-91256119D02*
X109753664Y-91232309D01*
X109753664Y-91232309D02*
X109872711Y-91232309D01*
X109872711Y-91232309D02*
X109944140Y-91256119D01*
X110348901Y-91708500D02*
X110301282Y-91732309D01*
X110301282Y-91732309D02*
X110206044Y-91732309D01*
X110206044Y-91732309D02*
X110158425Y-91708500D01*
X110158425Y-91708500D02*
X110134616Y-91660880D01*
X110134616Y-91660880D02*
X110134616Y-91470404D01*
X110134616Y-91470404D02*
X110158425Y-91422785D01*
X110158425Y-91422785D02*
X110206044Y-91398976D01*
X110206044Y-91398976D02*
X110301282Y-91398976D01*
X110301282Y-91398976D02*
X110348901Y-91422785D01*
X110348901Y-91422785D02*
X110372711Y-91470404D01*
X110372711Y-91470404D02*
X110372711Y-91518023D01*
X110372711Y-91518023D02*
X110134616Y-91565642D01*
X110586996Y-91398976D02*
X110586996Y-91732309D01*
X110586996Y-91446595D02*
X110610806Y-91422785D01*
X110610806Y-91422785D02*
X110658425Y-91398976D01*
X110658425Y-91398976D02*
X110729853Y-91398976D01*
X110729853Y-91398976D02*
X110777472Y-91422785D01*
X110777472Y-91422785D02*
X110801282Y-91470404D01*
X110801282Y-91470404D02*
X110801282Y-91732309D01*
X111015568Y-91708500D02*
X111063187Y-91732309D01*
X111063187Y-91732309D02*
X111158425Y-91732309D01*
X111158425Y-91732309D02*
X111206044Y-91708500D01*
X111206044Y-91708500D02*
X111229853Y-91660880D01*
X111229853Y-91660880D02*
X111229853Y-91637071D01*
X111229853Y-91637071D02*
X111206044Y-91589452D01*
X111206044Y-91589452D02*
X111158425Y-91565642D01*
X111158425Y-91565642D02*
X111086996Y-91565642D01*
X111086996Y-91565642D02*
X111039377Y-91541833D01*
X111039377Y-91541833D02*
X111015568Y-91494214D01*
X111015568Y-91494214D02*
X111015568Y-91470404D01*
X111015568Y-91470404D02*
X111039377Y-91422785D01*
X111039377Y-91422785D02*
X111086996Y-91398976D01*
X111086996Y-91398976D02*
X111158425Y-91398976D01*
X111158425Y-91398976D02*
X111206044Y-91422785D01*
X111444139Y-91732309D02*
X111444139Y-91398976D01*
X111444139Y-91232309D02*
X111420330Y-91256119D01*
X111420330Y-91256119D02*
X111444139Y-91279928D01*
X111444139Y-91279928D02*
X111467949Y-91256119D01*
X111467949Y-91256119D02*
X111444139Y-91232309D01*
X111444139Y-91232309D02*
X111444139Y-91279928D01*
X111682234Y-91398976D02*
X111682234Y-91732309D01*
X111682234Y-91446595D02*
X111706044Y-91422785D01*
X111706044Y-91422785D02*
X111753663Y-91398976D01*
X111753663Y-91398976D02*
X111825091Y-91398976D01*
X111825091Y-91398976D02*
X111872710Y-91422785D01*
X111872710Y-91422785D02*
X111896520Y-91470404D01*
X111896520Y-91470404D02*
X111896520Y-91732309D01*
X112348901Y-91398976D02*
X112348901Y-91803738D01*
X112348901Y-91803738D02*
X112325091Y-91851357D01*
X112325091Y-91851357D02*
X112301282Y-91875166D01*
X112301282Y-91875166D02*
X112253663Y-91898976D01*
X112253663Y-91898976D02*
X112182234Y-91898976D01*
X112182234Y-91898976D02*
X112134615Y-91875166D01*
X112348901Y-91708500D02*
X112301282Y-91732309D01*
X112301282Y-91732309D02*
X112206044Y-91732309D01*
X112206044Y-91732309D02*
X112158425Y-91708500D01*
X112158425Y-91708500D02*
X112134615Y-91684690D01*
X112134615Y-91684690D02*
X112110806Y-91637071D01*
X112110806Y-91637071D02*
X112110806Y-91494214D01*
X112110806Y-91494214D02*
X112134615Y-91446595D01*
X112134615Y-91446595D02*
X112158425Y-91422785D01*
X112158425Y-91422785D02*
X112206044Y-91398976D01*
X112206044Y-91398976D02*
X112301282Y-91398976D01*
X112301282Y-91398976D02*
X112348901Y-91422785D01*
X112896520Y-91232309D02*
X113063186Y-91732309D01*
X113063186Y-91732309D02*
X113229853Y-91232309D01*
X113372710Y-91279928D02*
X113396519Y-91256119D01*
X113396519Y-91256119D02*
X113444138Y-91232309D01*
X113444138Y-91232309D02*
X113563186Y-91232309D01*
X113563186Y-91232309D02*
X113610805Y-91256119D01*
X113610805Y-91256119D02*
X113634614Y-91279928D01*
X113634614Y-91279928D02*
X113658424Y-91327547D01*
X113658424Y-91327547D02*
X113658424Y-91375166D01*
X113658424Y-91375166D02*
X113634614Y-91446595D01*
X113634614Y-91446595D02*
X113348900Y-91732309D01*
X113348900Y-91732309D02*
X113658424Y-91732309D01*
D11*
X107522350Y-110182961D02*
X107554088Y-110214699D01*
X107554088Y-110214699D02*
X107585825Y-110309913D01*
X107585825Y-110309913D02*
X107585825Y-110373389D01*
X107585825Y-110373389D02*
X107554088Y-110468602D01*
X107554088Y-110468602D02*
X107490612Y-110532078D01*
X107490612Y-110532078D02*
X107427136Y-110563816D01*
X107427136Y-110563816D02*
X107300184Y-110595554D01*
X107300184Y-110595554D02*
X107204971Y-110595554D01*
X107204971Y-110595554D02*
X107078019Y-110563816D01*
X107078019Y-110563816D02*
X107014543Y-110532078D01*
X107014543Y-110532078D02*
X106951067Y-110468602D01*
X106951067Y-110468602D02*
X106919329Y-110373389D01*
X106919329Y-110373389D02*
X106919329Y-110309913D01*
X106919329Y-110309913D02*
X106951067Y-110214699D01*
X106951067Y-110214699D02*
X106982805Y-110182961D01*
X107141495Y-109611679D02*
X107585825Y-109611679D01*
X106887592Y-109770368D02*
X107363660Y-109929058D01*
X107363660Y-109929058D02*
X107363660Y-109516465D01*
X113527350Y-97834203D02*
X113559088Y-97865941D01*
X113559088Y-97865941D02*
X113590825Y-97961155D01*
X113590825Y-97961155D02*
X113590825Y-98024631D01*
X113590825Y-98024631D02*
X113559088Y-98119844D01*
X113559088Y-98119844D02*
X113495612Y-98183320D01*
X113495612Y-98183320D02*
X113432136Y-98215058D01*
X113432136Y-98215058D02*
X113305184Y-98246796D01*
X113305184Y-98246796D02*
X113209971Y-98246796D01*
X113209971Y-98246796D02*
X113083019Y-98215058D01*
X113083019Y-98215058D02*
X113019543Y-98183320D01*
X113019543Y-98183320D02*
X112956067Y-98119844D01*
X112956067Y-98119844D02*
X112924329Y-98024631D01*
X112924329Y-98024631D02*
X112924329Y-97961155D01*
X112924329Y-97961155D02*
X112956067Y-97865941D01*
X112956067Y-97865941D02*
X112987805Y-97834203D01*
X112924329Y-97612038D02*
X112924329Y-97167707D01*
X112924329Y-97167707D02*
X113590825Y-97453348D01*
X117955796Y-105420825D02*
X117733631Y-105103446D01*
X117574941Y-105420825D02*
X117574941Y-104754329D01*
X117574941Y-104754329D02*
X117828844Y-104754329D01*
X117828844Y-104754329D02*
X117892320Y-104786067D01*
X117892320Y-104786067D02*
X117924058Y-104817805D01*
X117924058Y-104817805D02*
X117955796Y-104881281D01*
X117955796Y-104881281D02*
X117955796Y-104976495D01*
X117955796Y-104976495D02*
X117924058Y-105039971D01*
X117924058Y-105039971D02*
X117892320Y-105071708D01*
X117892320Y-105071708D02*
X117828844Y-105103446D01*
X117828844Y-105103446D02*
X117574941Y-105103446D01*
X118209699Y-104817805D02*
X118241437Y-104786067D01*
X118241437Y-104786067D02*
X118304913Y-104754329D01*
X118304913Y-104754329D02*
X118463602Y-104754329D01*
X118463602Y-104754329D02*
X118527078Y-104786067D01*
X118527078Y-104786067D02*
X118558816Y-104817805D01*
X118558816Y-104817805D02*
X118590554Y-104881281D01*
X118590554Y-104881281D02*
X118590554Y-104944757D01*
X118590554Y-104944757D02*
X118558816Y-105039971D01*
X118558816Y-105039971D02*
X118177961Y-105420825D01*
X118177961Y-105420825D02*
X118590554Y-105420825D01*
D12*
X129438095Y-108857419D02*
X129438095Y-109666942D01*
X129438095Y-109666942D02*
X129485714Y-109762180D01*
X129485714Y-109762180D02*
X129533333Y-109809800D01*
X129533333Y-109809800D02*
X129628571Y-109857419D01*
X129628571Y-109857419D02*
X129819047Y-109857419D01*
X129819047Y-109857419D02*
X129914285Y-109809800D01*
X129914285Y-109809800D02*
X129961904Y-109762180D01*
X129961904Y-109762180D02*
X130009523Y-109666942D01*
X130009523Y-109666942D02*
X130009523Y-108857419D01*
X131009523Y-109857419D02*
X130438095Y-109857419D01*
X130723809Y-109857419D02*
X130723809Y-108857419D01*
X130723809Y-108857419D02*
X130628571Y-109000276D01*
X130628571Y-109000276D02*
X130533333Y-109095514D01*
X130533333Y-109095514D02*
X130438095Y-109143133D01*
D13*
X109121726Y-105866194D02*
X107953326Y-105866194D01*
X109010449Y-104642156D02*
X109066088Y-104697794D01*
X109066088Y-104697794D02*
X109121726Y-104864708D01*
X109121726Y-104864708D02*
X109121726Y-104975984D01*
X109121726Y-104975984D02*
X109066088Y-105142899D01*
X109066088Y-105142899D02*
X108954811Y-105254175D01*
X108954811Y-105254175D02*
X108843535Y-105309813D01*
X108843535Y-105309813D02*
X108620983Y-105365451D01*
X108620983Y-105365451D02*
X108454068Y-105365451D01*
X108454068Y-105365451D02*
X108231516Y-105309813D01*
X108231516Y-105309813D02*
X108120240Y-105254175D01*
X108120240Y-105254175D02*
X108008964Y-105142899D01*
X108008964Y-105142899D02*
X107953326Y-104975984D01*
X107953326Y-104975984D02*
X107953326Y-104864708D01*
X107953326Y-104864708D02*
X108008964Y-104697794D01*
X108008964Y-104697794D02*
X108064602Y-104642156D01*
X109121726Y-103529394D02*
X109121726Y-104197051D01*
X109121726Y-103863223D02*
X107953326Y-103863223D01*
X107953326Y-103863223D02*
X108120240Y-103974499D01*
X108120240Y-103974499D02*
X108231516Y-104085775D01*
X108231516Y-104085775D02*
X108287154Y-104197051D01*
D11*
X115179445Y-109419329D02*
X115179445Y-109958874D01*
X115179445Y-109958874D02*
X115211183Y-110022350D01*
X115211183Y-110022350D02*
X115242921Y-110054088D01*
X115242921Y-110054088D02*
X115306397Y-110085825D01*
X115306397Y-110085825D02*
X115433348Y-110085825D01*
X115433348Y-110085825D02*
X115496824Y-110054088D01*
X115496824Y-110054088D02*
X115528562Y-110022350D01*
X115528562Y-110022350D02*
X115560300Y-109958874D01*
X115560300Y-109958874D02*
X115560300Y-109419329D01*
X115814203Y-109419329D02*
X116226796Y-109419329D01*
X116226796Y-109419329D02*
X116004631Y-109673233D01*
X116004631Y-109673233D02*
X116099844Y-109673233D01*
X116099844Y-109673233D02*
X116163320Y-109704971D01*
X116163320Y-109704971D02*
X116195058Y-109736708D01*
X116195058Y-109736708D02*
X116226796Y-109800184D01*
X116226796Y-109800184D02*
X116226796Y-109958874D01*
X116226796Y-109958874D02*
X116195058Y-110022350D01*
X116195058Y-110022350D02*
X116163320Y-110054088D01*
X116163320Y-110054088D02*
X116099844Y-110085825D01*
X116099844Y-110085825D02*
X115909417Y-110085825D01*
X115909417Y-110085825D02*
X115845941Y-110054088D01*
X115845941Y-110054088D02*
X115814203Y-110022350D01*
X118222350Y-114282961D02*
X118254088Y-114314699D01*
X118254088Y-114314699D02*
X118285825Y-114409913D01*
X118285825Y-114409913D02*
X118285825Y-114473389D01*
X118285825Y-114473389D02*
X118254088Y-114568602D01*
X118254088Y-114568602D02*
X118190612Y-114632078D01*
X118190612Y-114632078D02*
X118127136Y-114663816D01*
X118127136Y-114663816D02*
X118000184Y-114695554D01*
X118000184Y-114695554D02*
X117904971Y-114695554D01*
X117904971Y-114695554D02*
X117778019Y-114663816D01*
X117778019Y-114663816D02*
X117714543Y-114632078D01*
X117714543Y-114632078D02*
X117651067Y-114568602D01*
X117651067Y-114568602D02*
X117619329Y-114473389D01*
X117619329Y-114473389D02*
X117619329Y-114409913D01*
X117619329Y-114409913D02*
X117651067Y-114314699D01*
X117651067Y-114314699D02*
X117682805Y-114282961D01*
X117619329Y-113679941D02*
X117619329Y-113997320D01*
X117619329Y-113997320D02*
X117936708Y-114029058D01*
X117936708Y-114029058D02*
X117904971Y-113997320D01*
X117904971Y-113997320D02*
X117873233Y-113933844D01*
X117873233Y-113933844D02*
X117873233Y-113775155D01*
X117873233Y-113775155D02*
X117904971Y-113711679D01*
X117904971Y-113711679D02*
X117936708Y-113679941D01*
X117936708Y-113679941D02*
X118000184Y-113648203D01*
X118000184Y-113648203D02*
X118158874Y-113648203D01*
X118158874Y-113648203D02*
X118222350Y-113679941D01*
X118222350Y-113679941D02*
X118254088Y-113711679D01*
X118254088Y-113711679D02*
X118285825Y-113775155D01*
X118285825Y-113775155D02*
X118285825Y-113933844D01*
X118285825Y-113933844D02*
X118254088Y-113997320D01*
X118254088Y-113997320D02*
X118222350Y-114029058D01*
X111895796Y-99530825D02*
X111673631Y-99213446D01*
X111514941Y-99530825D02*
X111514941Y-98864329D01*
X111514941Y-98864329D02*
X111768844Y-98864329D01*
X111768844Y-98864329D02*
X111832320Y-98896067D01*
X111832320Y-98896067D02*
X111864058Y-98927805D01*
X111864058Y-98927805D02*
X111895796Y-98991281D01*
X111895796Y-98991281D02*
X111895796Y-99086495D01*
X111895796Y-99086495D02*
X111864058Y-99149971D01*
X111864058Y-99149971D02*
X111832320Y-99181708D01*
X111832320Y-99181708D02*
X111768844Y-99213446D01*
X111768844Y-99213446D02*
X111514941Y-99213446D01*
X112530554Y-99530825D02*
X112149699Y-99530825D01*
X112340127Y-99530825D02*
X112340127Y-98864329D01*
X112340127Y-98864329D02*
X112276651Y-98959543D01*
X112276651Y-98959543D02*
X112213175Y-99023019D01*
X112213175Y-99023019D02*
X112149699Y-99054757D01*
X119671825Y-109061961D02*
X119354446Y-109284126D01*
X119671825Y-109442816D02*
X119005329Y-109442816D01*
X119005329Y-109442816D02*
X119005329Y-109188913D01*
X119005329Y-109188913D02*
X119037067Y-109125437D01*
X119037067Y-109125437D02*
X119068805Y-109093699D01*
X119068805Y-109093699D02*
X119132281Y-109061961D01*
X119132281Y-109061961D02*
X119227495Y-109061961D01*
X119227495Y-109061961D02*
X119290971Y-109093699D01*
X119290971Y-109093699D02*
X119322708Y-109125437D01*
X119322708Y-109125437D02*
X119354446Y-109188913D01*
X119354446Y-109188913D02*
X119354446Y-109442816D01*
X119005329Y-108839796D02*
X119005329Y-108427203D01*
X119005329Y-108427203D02*
X119259233Y-108649368D01*
X119259233Y-108649368D02*
X119259233Y-108554155D01*
X119259233Y-108554155D02*
X119290971Y-108490679D01*
X119290971Y-108490679D02*
X119322708Y-108458941D01*
X119322708Y-108458941D02*
X119386184Y-108427203D01*
X119386184Y-108427203D02*
X119544874Y-108427203D01*
X119544874Y-108427203D02*
X119608350Y-108458941D01*
X119608350Y-108458941D02*
X119640088Y-108490679D01*
X119640088Y-108490679D02*
X119671825Y-108554155D01*
X119671825Y-108554155D02*
X119671825Y-108744582D01*
X119671825Y-108744582D02*
X119640088Y-108808058D01*
X119640088Y-108808058D02*
X119608350Y-108839796D01*
X119477350Y-96364203D02*
X119509088Y-96395941D01*
X119509088Y-96395941D02*
X119540825Y-96491155D01*
X119540825Y-96491155D02*
X119540825Y-96554631D01*
X119540825Y-96554631D02*
X119509088Y-96649844D01*
X119509088Y-96649844D02*
X119445612Y-96713320D01*
X119445612Y-96713320D02*
X119382136Y-96745058D01*
X119382136Y-96745058D02*
X119255184Y-96776796D01*
X119255184Y-96776796D02*
X119159971Y-96776796D01*
X119159971Y-96776796D02*
X119033019Y-96745058D01*
X119033019Y-96745058D02*
X118969543Y-96713320D01*
X118969543Y-96713320D02*
X118906067Y-96649844D01*
X118906067Y-96649844D02*
X118874329Y-96554631D01*
X118874329Y-96554631D02*
X118874329Y-96491155D01*
X118874329Y-96491155D02*
X118906067Y-96395941D01*
X118906067Y-96395941D02*
X118937805Y-96364203D01*
X118874329Y-95792921D02*
X118874329Y-95919872D01*
X118874329Y-95919872D02*
X118906067Y-95983348D01*
X118906067Y-95983348D02*
X118937805Y-96015086D01*
X118937805Y-96015086D02*
X119033019Y-96078562D01*
X119033019Y-96078562D02*
X119159971Y-96110300D01*
X119159971Y-96110300D02*
X119413874Y-96110300D01*
X119413874Y-96110300D02*
X119477350Y-96078562D01*
X119477350Y-96078562D02*
X119509088Y-96046824D01*
X119509088Y-96046824D02*
X119540825Y-95983348D01*
X119540825Y-95983348D02*
X119540825Y-95856397D01*
X119540825Y-95856397D02*
X119509088Y-95792921D01*
X119509088Y-95792921D02*
X119477350Y-95761183D01*
X119477350Y-95761183D02*
X119413874Y-95729445D01*
X119413874Y-95729445D02*
X119255184Y-95729445D01*
X119255184Y-95729445D02*
X119191708Y-95761183D01*
X119191708Y-95761183D02*
X119159971Y-95792921D01*
X119159971Y-95792921D02*
X119128233Y-95856397D01*
X119128233Y-95856397D02*
X119128233Y-95983348D01*
X119128233Y-95983348D02*
X119159971Y-96046824D01*
X119159971Y-96046824D02*
X119191708Y-96078562D01*
X119191708Y-96078562D02*
X119255184Y-96110300D01*
D14*
%TO.C,C4*%
X108375000Y-112450000D02*
X107575000Y-112450000D01*
%TO.C,C7*%
X114300000Y-96266000D02*
X115316000Y-96266000D01*
%TO.C,R2*%
X117856000Y-103359000D02*
X117856000Y-104159000D01*
D12*
%TO.C,U1*%
X134366000Y-94742000D02*
X134366000Y-90932000D01*
X126746000Y-94742000D02*
X134366000Y-94742000D01*
X126746000Y-90932000D02*
X126746000Y-94742000D01*
D15*
%TO.C,IC1*%
X113764000Y-102942000D02*
X113764000Y-105592000D01*
X110264000Y-102942000D02*
X113764000Y-102942000D01*
X113764000Y-105592000D02*
X110264000Y-105592000D01*
X110264000Y-105592000D02*
X110264000Y-102942000D01*
D16*
%TO.C,U3*%
X110141000Y-107728000D02*
X110491000Y-107728000D01*
X114141000Y-108078000D02*
X113791000Y-107728000D01*
X110141000Y-108078000D02*
X110141000Y-107728000D01*
X110141000Y-111378000D02*
X110141000Y-111728000D01*
X114141000Y-111728000D02*
X114141000Y-111378000D01*
X113791000Y-111728000D02*
X114141000Y-111728000D01*
X110491000Y-111728000D02*
X110141000Y-111728000D01*
X114350800Y-107645200D02*
G75*
G03*
X114096800Y-107645200I-127000J0D01*
G01*
X114096800Y-107645200D02*
G75*
G03*
X114350800Y-107645200I127000J0D01*
G01*
D14*
%TO.C,C5*%
X117100000Y-112450000D02*
X116300000Y-112450000D01*
%TO.C,R1*%
X111760000Y-100184000D02*
X111760000Y-100984000D01*
%TO.C,R3*%
X118510000Y-107950000D02*
X117710000Y-107950000D01*
%TO.C,C6*%
X117221000Y-96266000D02*
X118237000Y-96266000D01*
%TD*%
M02*
