%TF.GenerationSoftware,KiCad,Pcbnew,7.0.10*%
%TF.CreationDate,2024-01-26T16:43:20-08:00*%
%TF.ProjectId,FinalProject,46696e61-6c50-4726-9f6a-6563742e6b69,v2*%
%TF.SameCoordinates,Original*%
%TF.FileFunction,Soldermask,Top*%
%TF.FilePolarity,Negative*%
%FSLAX46Y46*%
G04 Gerber Fmt 4.6, Leading zero omitted, Abs format (unit mm)*
G04 Created by KiCad (PCBNEW 7.0.10) date 2024-01-26 16:43:20*
%MOMM*%
%LPD*%
G01*
G04 APERTURE LIST*
G04 Aperture macros list*
%AMRoundRect*
0 Rectangle with rounded corners*
0 $1 Rounding radius*
0 $2 $3 $4 $5 $6 $7 $8 $9 X,Y pos of 4 corners*
0 Add a 4 corners polygon primitive as box body*
4,1,4,$2,$3,$4,$5,$6,$7,$8,$9,$2,$3,0*
0 Add four circle primitives for the rounded corners*
1,1,$1+$1,$2,$3*
1,1,$1+$1,$4,$5*
1,1,$1+$1,$6,$7*
1,1,$1+$1,$8,$9*
0 Add four rect primitives between the rounded corners*
20,1,$1+$1,$2,$3,$4,$5,0*
20,1,$1+$1,$4,$5,$6,$7,0*
20,1,$1+$1,$6,$7,$8,$9,0*
20,1,$1+$1,$8,$9,$2,$3,0*%
G04 Aperture macros list end*
%ADD10RoundRect,0.050800X-0.620000X-0.750000X0.620000X-0.750000X0.620000X0.750000X-0.620000X0.750000X0*%
%ADD11RoundRect,0.050800X-0.537500X-0.500000X0.537500X-0.500000X0.537500X0.500000X-0.537500X0.500000X0*%
%ADD12O,3.556000X1.778000*%
%ADD13RoundRect,0.050800X-0.300000X-0.262500X0.300000X-0.262500X0.300000X0.262500X-0.300000X0.262500X0*%
%ADD14C,1.726600*%
%ADD15RoundRect,0.095400X0.355400X0.095400X-0.355400X0.095400X-0.355400X-0.095400X0.355400X-0.095400X0*%
%ADD16RoundRect,0.095400X0.095400X-0.355400X0.095400X0.355400X-0.095400X0.355400X-0.095400X-0.355400X0*%
%ADD17RoundRect,0.095400X-0.355400X-0.095400X0.355400X-0.095400X0.355400X0.095400X-0.355400X0.095400X0*%
%ADD18RoundRect,0.095400X-0.095400X0.355400X-0.095400X-0.355400X0.095400X-0.355400X0.095400X0.355400X0*%
%ADD19RoundRect,0.050800X-1.250000X-1.250000X1.250000X-1.250000X1.250000X1.250000X-1.250000X1.250000X0*%
G04 APERTURE END LIST*
D10*
%TO.C,C7*%
X164905000Y-94742000D03*
X166805000Y-94742000D03*
%TD*%
D11*
%TO.C,R2*%
X152405000Y-98806000D03*
X154105000Y-98806000D03*
%TD*%
%TO.C,C4*%
X168153000Y-97790000D03*
X169853000Y-97790000D03*
%TD*%
D12*
%TO.C,U1*%
X126927000Y-101854000D03*
X126927000Y-104394000D03*
X126927000Y-106934000D03*
X126927000Y-109474000D03*
X126927000Y-112014000D03*
X126927000Y-114554000D03*
X126927000Y-117094000D03*
X143691000Y-101854000D03*
X143691000Y-104394000D03*
X143691000Y-106934000D03*
X143691000Y-109474000D03*
X143691000Y-112014000D03*
X143691000Y-114554000D03*
X143691000Y-117094000D03*
%TD*%
D13*
%TO.C,IC1*%
X150041000Y-86614000D03*
X150041000Y-87464000D03*
D14*
X150941000Y-88724000D03*
D13*
X151841000Y-87464000D03*
X151841000Y-86614000D03*
X150941000Y-86614000D03*
%TD*%
D15*
%TO.C,U3*%
X158201000Y-100096000D03*
X158201000Y-100596000D03*
X158201000Y-101096000D03*
X158201000Y-101596000D03*
X158201000Y-102096000D03*
X158201000Y-102596000D03*
D16*
X158951000Y-103346000D03*
X159451000Y-103346000D03*
X159951000Y-103346000D03*
X160451000Y-103346000D03*
X160951000Y-103346000D03*
X161451000Y-103346000D03*
D17*
X162201000Y-102596000D03*
X162201000Y-102096000D03*
X162201000Y-101596000D03*
X162201000Y-101096000D03*
X162201000Y-100596000D03*
X162201000Y-100096000D03*
D18*
X161451000Y-99346000D03*
X160951000Y-99346000D03*
X160451000Y-99346000D03*
X159951000Y-99346000D03*
X159451000Y-99346000D03*
X158951000Y-99346000D03*
D19*
X160201000Y-101346000D03*
%TD*%
D11*
%TO.C,C5*%
X160943400Y-94755200D03*
X162643400Y-94755200D03*
%TD*%
%TO.C,R1*%
X152405000Y-95758000D03*
X154105000Y-95758000D03*
%TD*%
%TO.C,R3*%
X151897000Y-103378000D03*
X153597000Y-103378000D03*
%TD*%
D10*
%TO.C,C6*%
X167777000Y-100838000D03*
X169677000Y-100838000D03*
%TD*%
M02*
