<?xml version="1.0" encoding="utf-8"?>
<!-- Generator: Fusion 360, Shaper Origin Export Add-In, Version 1.7.0  -->
<svg xmlns="http://www.w3.org/2000/svg" xmlns:xlink="http://www.w3.org/1999/xlink" xmlns:shaper="http://www.shapertools.com/namespaces/shaper" shaper:fusionaddin="version:1.7.0" width="4.6156933cm" height="4.821296cm" version="1.1" x="0cm" y="0cm" viewBox="0 0 4.6156933 4.821296" enable-background="new 0 0 4.6156933 4.821296" xml:space="preserve"><path d="M4.0077138,0.4569489 L4.0077138,0.4569489 4.0082936,0.4695946 4.0100331,0.4815308 4.0129323,0.4927574 4.0169912,0.5032746 4.0222097,0.5130821 4.0285878,0.5221802 4.0361257,0.5305687 4.0448232,0.5382477 4.0448232,0.5382477 4.0567136,0.5464302 4.0704122,0.5535218 4.0859189,0.5595223 4.1032338,0.5644318 4.1223569,0.5682503 4.1432882,0.5709778 4.1660276,0.5726143 4.1905751,0.5731598 4.1905751,0.5731598 4.2150731,0.5726105 4.2377858,0.5709625 4.2587133,0.568216 4.2778554,0.5643707 4.2952123,0.5594269 4.3107839,0.5533844 4.3245702,0.5462433 4.3365712,0.5380036 4.3365712,0.5380036 4.3451543,0.5303818 4.352593,0.5220429 4.3588872,0.5129868 4.3640371,0.5032135 4.3680425,0.4927231 4.3709035,0.4815155 4.3726201,0.4695908 4.3731923,0.4569489 4.3731923,0.4569489 4.3725667,0.444204 4.3706899,0.4320923 4.3675618,0.4206139 4.3631826,0.4097687 4.3575521,0.3995568 4.3506704,0.389978 4.3425374,0.3810326 4.3331533,0.3727204 4.3331533,0.3727204 4.3221021,0.3652245 4.3090902,0.358728 4.2941175,0.3532311 4.277184,0.3487335 4.2582898,0.3452355 4.2374349,0.3427368 4.2146192,0.3412377 4.1898427,0.3407379 4.1898427,0.3407379 4.1654592,0.3412873 4.1428456,0.3429352 4.1220021,0.3456818 4.1029287,0.349527 4.0856252,0.3544708 4.0700917,0.3605133 4.0563283,0.3676544 4.0443349,0.3758942 4.0443349,0.3758942 4.0357518,0.383516 4.0283132,0.3918549 4.0220189,0.400911 4.0168691,0.4106842 4.0128637,0.4211746 4.0100026,0.4323822 4.008286,0.444307 4.0077138,0.4569489z" transform="matrix(1,0,0,-1,0.2342002,4.053489)" stroke="rgb(100,100,100)" stroke-width="0.0010cm" stroke-linecap="round" stroke-linejoin="round" fill="none" /><path d="M4.0645986,0.4569489 L4.0645986,0.4569489 4.0651021,0.4508911 4.0666127,0.4451691 4.0691304,0.4397827 4.0726552,0.4347321 4.0726552,0.4347321 4.0773549,0.4301239 4.0836415,0.4260651 4.0915151,0.4225556 4.1009755,0.4195954 4.1009755,0.4195954 4.1081967,0.417936 4.1165548,0.4164978 4.1260495,0.4152809 4.1366811,0.4142853 4.1484494,0.4135109 4.1613546,0.4129578 4.1753965,0.4126259 4.1905751,0.4125153 4.1905751,0.4125153 4.205708,0.4126145 4.2196126,0.412912 4.2322889,0.4134079 4.2437368,0.4141022 4.2539563,0.4149948 4.2629476,0.4160858 4.2707105,0.4173752 4.2772451,0.4188629 4.2772451,0.4188629 4.2879872,0.4222351 4.2967763,0.4260041 4.3036122,0.4301697 4.3084951,0.4347321 4.3084951,0.4347321 4.311913,0.4397827 4.3143544,0.4451691 4.3158193,0.4508911 4.3163076,0.4569489 4.3163076,0.4569489 4.3158193,0.4630066 4.3143544,0.4687287 4.311913,0.474115 4.3084951,0.4791657 4.3084951,0.4791657 4.3036885,0.4837738 4.2973256,0.4878327 4.2894063,0.4913422 4.2799306,0.4943024 4.2799306,0.4943024 4.2727666,0.4959618 4.2644582,0.4973999 4.2550054,0.4986168 4.2444081,0.4996124 4.2326665,0.5003868 4.2197805,0.50094 4.20575,0.5012718 4.1905751,0.5013825 4.1905751,0.5013825 4.175446,0.5012833 4.1615529,0.5009857 4.1488958,0.5004898 4.1374746,0.4997956 4.1272893,0.4989029 4.11834,0.4978119 4.1106267,0.4965225 4.1041494,0.4950348 4.1041494,0.4950348 4.0933004,0.4916474 4.084435,0.4878327 4.0775533,0.4835907 4.0726552,0.4789215 4.0726552,0.4789215 4.0691304,0.4739777 4.0666127,0.4686676 4.0651021,0.4629914 4.0645986,0.4569489z" transform="matrix(1,0,0,-1,0.2342002,4.053489)" stroke="rgb(100,100,100)" stroke-width="0.0010cm" stroke-linecap="round" stroke-linejoin="round" fill="none" /><path d="M4.0975576,0.6195465 L4.0975576,0.6195465 4.0859227,0.6198746 4.0750661,0.6208588 4.0649877,0.6224991 4.0556874,0.6247956 4.0471654,0.6277481 4.0394216,0.6313568 4.0324559,0.6356217 4.0262685,0.6405426 4.0262685,0.6405426 4.0208326,0.6460854 4.0161214,0.6520935 4.012135,0.6585671 4.0088735,0.665506 4.0063367,0.6729103 4.0045247,0.6807801 4.0034375,0.6891152 4.0030751,0.6979157 4.0030751,0.6979157 4.0034375,0.7069985 4.0045247,0.7155701 4.0063367,0.7236305 4.0088735,0.7311798 4.012135,0.7382179 4.0161214,0.7447449 4.0208326,0.7507607 4.0262685,0.7562653 4.0262685,0.7562653 4.0324025,0.7612435 4.03933,0.7655579 4.047051,0.7692085 4.0555654,0.7721955 4.0648732,0.7745186 4.0749746,0.776178 4.0858693,0.7771736 4.0975576,0.7775055 4.0975576,0.7775055 4.1091924,0.7771736 4.120049,0.776178 4.1301274,0.7745186 4.1394277,0.7721955 4.1479497,0.7692085 4.1556935,0.7655579 4.1626592,0.7612435 4.1688466,0.7562653 4.1688466,0.7562653 4.1742826,0.7507797 4.1789937,0.7448212 4.1829801,0.7383896 4.1862416,0.731485 4.1887784,0.7241074 4.1905904,0.7162567 4.1916776,0.7079331 4.19204,0.6991364 4.19204,0.6991364 4.1916814,0.6900498 4.1906057,0.6814667 4.1888127,0.6733872 4.1863027,0.6658112 4.1830754,0.6587387 4.179131,0.6521698 4.1744695,0.6461045 4.1690908,0.6405426 4.1690908,0.6405426 4.1628995,0.6356217 4.1559224,0.6313568 4.1481595,0.6277481 4.1396108,0.6247956 4.1302762,0.6224991 4.1201558,0.6208588 4.1092496,0.6198746 4.0975576,0.6195465z" transform="matrix(1,0,0,-1,0.2342002,4.053489)" stroke="rgb(100,100,100)" stroke-width="0.0010cm" stroke-linecap="round" stroke-linejoin="round" fill="none" /><path d="M4.0970693,0.6730133 L4.0970693,0.6730133 4.1054387,0.6731392 4.113091,0.6735169 4.1200261,0.6741463 4.1262441,0.6750275 4.1317449,0.6761605 4.1365285,0.6775452 4.140595,0.6791817 4.1439443,0.68107 4.1439443,0.68107 4.1477895,0.6844116 4.1505361,0.6883332 4.152184,0.6928345 4.1527333,0.6979157 4.1527333,0.6979157 4.152184,0.7031037 4.1505361,0.7076813 4.1477895,0.7116486 4.1439443,0.7150055 4.1439443,0.7150055 4.140595,0.7168366 4.1365285,0.7184235 4.1317449,0.7197663 4.1262441,0.7208649 4.1200261,0.7217194 4.113091,0.7223297 4.1054387,0.7226959 4.0970693,0.722818 4.0970693,0.722818 4.0887036,0.7226959 4.0810628,0.7223297 4.0741468,0.7217194 4.0679555,0.7208649 4.062489,0.7197663 4.0577474,0.7184235 4.0537305,0.7168366 4.0504384,0.7150055 4.0504384,0.7150055 4.0464864,0.7116486 4.0436635,0.7076813 4.0419698,0.7031037 4.0414052,0.6979157 4.0414052,0.6979157 4.0419545,0.6928345 4.0436025,0.6883332 4.0463491,0.6844116 4.0501943,0.68107 4.0501943,0.68107 4.0535436,0.6791817 4.05761,0.6775452 4.0623937,0.6761605 4.0678945,0.6750275 4.0741124,0.6741463 4.0810475,0.6735169 4.0886998,0.6731392 4.0970693,0.6730133z" transform="matrix(1,0,0,-1,0.2342002,4.053489)" stroke="rgb(100,100,100)" stroke-width="0.0010cm" stroke-linecap="round" stroke-linejoin="round" fill="none" /><path d="M4.3807607,0.7501618 L4.3807607,0.6993805 4.0030751,0.8900543 4.0030751,0.9393707 4.3807607,0.7501618z" transform="matrix(1,0,0,-1,0.2342002,4.053489)" stroke="rgb(100,100,100)" stroke-width="0.0010cm" stroke-linecap="round" stroke-linejoin="round" fill="none" /><path d="M4.2867665,0.8610016 L4.2867665,0.8610016 4.2751317,0.8613297 4.2642751,0.8623139 4.2541967,0.8639542 4.2448964,0.8662506 4.2363744,0.8692032 4.2286306,0.8728119 4.2216649,0.8770767 4.2154775,0.8819977 4.2154775,0.8819977 4.2100415,0.8875481 4.2053304,0.8935791 4.201344,0.9000908 4.1980825,0.9070832 4.1955457,0.9145561 4.1937337,0.9225098 4.1926465,0.9309441 4.1922841,0.939859 4.1922841,0.939859 4.1926465,0.9488274 4.1937337,0.9572998 4.1955457,0.9652764 4.1980825,0.972757 4.201344,0.9797417 4.2053304,0.9862305 4.2100415,0.9922234 4.2154775,0.9977204 4.2154775,0.9977204 4.2216649,1.0026985 4.2286306,1.007013 4.2363744,1.0106636 4.2448964,1.0136505 4.2541967,1.0159737 4.2642751,1.0176331 4.2751317,1.0186287 4.2867665,1.0189606 4.2867665,1.0189606 4.2984586,1.0186287 4.3093648,1.0176331 4.3194852,1.0159737 4.3288198,1.0136505 4.3373685,1.0106636 4.3451314,1.007013 4.3521085,1.0026985 4.3582997,0.9977204 4.3582997,0.9977204 4.3637357,0.9922348 4.3684468,0.9862763 4.3724332,0.9798447 4.3756948,0.9729401 4.3782315,0.9655625 4.3800435,0.9577118 4.3811307,0.9493881 4.3814931,0.9405915 4.3814931,0.9405915 4.3811307,0.9315048 4.3800435,0.9229218 4.3782315,0.9148422 4.3756948,0.9072663 4.3724332,0.9001938 4.3684468,0.8936249 4.3637357,0.8875595 4.3582997,0.8819977 4.3582997,0.8819977 4.3521085,0.8770767 4.3451314,0.8728119 4.3373685,0.8692032 4.3288198,0.8662506 4.3194852,0.8639542 4.3093648,0.8623139 4.2984586,0.8613297 4.2867665,0.8610016z" transform="matrix(1,0,0,-1,0.2342002,4.053489)" stroke="rgb(100,100,100)" stroke-width="0.0010cm" stroke-linecap="round" stroke-linejoin="round" fill="none" /><path d="M4.2865224,0.9144684 L4.2865224,0.9144684 4.294888,0.9145943 4.3025289,0.9149719 4.3094449,0.9156014 4.3156362,0.9164826 4.3211026,0.9176155 4.3258443,0.9190003 4.3298612,0.9206368 4.3331533,0.922525 4.3331533,0.922525 4.3371053,0.9258667 4.3399282,0.9297882 4.3416219,0.9342896 4.3421865,0.9393707 4.3421865,0.9393707 4.3416371,0.9445435 4.3399892,0.9490753 4.3372426,0.9529663 4.3333974,0.9562165 4.3333974,0.9562165 4.3300481,0.9581047 4.3259816,0.9597412 4.321198,0.961126 4.3156972,0.9622589 4.3094793,0.9631401 4.3025441,0.9637696 4.2948918,0.9641472 4.2865224,0.9642731 4.2865224,0.9642731 4.278153,0.964151 4.2705007,0.9637848 4.2635656,0.9631745 4.2573476,0.96232 4.2518468,0.9612213 4.2470632,0.9598786 4.2429967,0.9582916 4.2396474,0.9564606 4.2396474,0.9564606 4.2358022,0.9531037 4.2330556,0.9491364 4.2314077,0.9445587 4.2308583,0.9393707 4.2308583,0.9393707 4.2314077,0.934198 4.2330556,0.9296662 4.2358022,0.9257752 4.2396474,0.922525 4.2396474,0.922525 4.2429967,0.9206368 4.2470632,0.9190003 4.2518468,0.9176155 4.2573476,0.9164826 4.2635656,0.9156014 4.2705007,0.9149719 4.278153,0.9145943 4.2865224,0.9144684z" transform="matrix(1,0,0,-1,0.2342002,4.053489)" stroke="rgb(100,100,100)" stroke-width="0.0010cm" stroke-linecap="round" stroke-linejoin="round" fill="none" /><path d="M1.9033681,-0.5273285 L1.9670888,-0.5273285 1.9670888,-0.767807 1.9670888,-0.767807 1.9492665,-0.7648773 1.9319326,-0.7599945 1.9150869,-0.7531585 1.8987294,-0.7443695 1.8987294,-0.7443695 1.8902837,-0.7388916 1.8811818,-0.7322235 1.8714238,-0.7243652 1.8610097,-0.7153168 1.8499395,-0.7050781 1.8382131,-0.6936493 1.8258306,-0.6810303 1.8127919,-0.667221 1.8127919,-0.667221 1.8024236,-0.6561851 1.792925,-0.6462707 1.7842961,-0.6374779 1.7765371,-0.6298065 1.7696477,-0.6232567 1.7636281,-0.6178283 1.7584783,-0.6135216 1.7541982,-0.6103363 1.7541982,-0.6103363 1.7436086,-0.6041412 1.73308,-0.5997162 1.7226125,-0.5970611 1.712206,-0.5961761 1.712206,-0.5961761 1.7014028,-0.5969543 1.6919423,-0.5992889 1.6838246,-0.6031799 1.6770497,-0.6086273 1.6770497,-0.6086273 1.6716024,-0.6153259 1.6677114,-0.6232147 1.6653768,-0.6322937 1.6645986,-0.6425628 1.6645986,-0.6425628 1.6654073,-0.6527557 1.6678334,-0.66185 1.671877,-0.6698456 1.677538,-0.6767425 1.677538,-0.6767425 1.6810399,-0.6797485 1.6850759,-0.6824188 1.6896459,-0.6847534 1.6947499,-0.6867523 1.7003881,-0.6884155 1.7065602,-0.689743 1.7132665,-0.6907348 1.7205068,-0.691391 1.7136708,-0.7597503 1.7136708,-0.7597503 1.7000104,-0.7578163 1.6873494,-0.7550659 1.6756879,-0.7514992 1.6650258,-0.7471161 1.6553632,-0.7419166 1.6467,-0.7359009 1.6390363,-0.7290687 1.632372,-0.7214203 1.632372,-0.7214203 1.6265927,-0.7131119 1.621584,-0.7042999 1.6173459,-0.6949844 1.6138784,-0.6851654 1.6111814,-0.6748428 1.6092549,-0.6640167 1.6080991,-0.6526871 1.6077138,-0.6408539 1.6077138,-0.6408539 1.6081601,-0.627964 1.6094991,-0.6157837 1.6117307,-0.6043129 1.6148549,-0.5935516 1.6188718,-0.5834999 1.6237813,-0.5741577 1.6295835,-0.565525 1.6362783,-0.5576019 1.6362783,-0.5576019 1.6436368,-0.5505066 1.6514302,-0.5443573 1.6596585,-0.539154 1.6683217,-0.5348968 1.6774198,-0.5315857 1.6869527,-0.5292206 1.6969205,-0.5278015 1.7073232,-0.5273285 1.7073232,-0.5273285 1.7192708,-0.5278778 1.7309438,-0.5295257 1.7423421,-0.5322723 1.7534658,-0.5361175 1.7534658,-0.5361175 1.7644673,-0.5410309 1.7757436,-0.5472259 1.7872945,-0.5547027 1.7991201,-0.5634613 1.7991201,-0.5634613 1.8033048,-0.5668869 1.8079244,-0.5709381 1.8129789,-0.5756149 1.8184682,-0.5809173 1.8243924,-0.5868454 1.8307515,-0.593399 1.8375455,-0.6005783 1.8447744,-0.6083832 1.8447744,-0.6083832 1.8519078,-0.6161308 1.8584157,-0.6231384 1.864298,-0.629406 1.8695546,-0.6349334 1.8741857,-0.6397209 1.8781911,-0.6437683 1.8815709,-0.6470756 1.8843251,-0.6496429 1.8843251,-0.6496429 1.8939687,-0.6573944 1.9033681,-0.6635589 1.9033681,-0.5273285z" transform="matrix(1,0,0,-1,0.2342002,4.053489)" stroke="rgb(100,100,100)" stroke-width="0.0010cm" stroke-linecap="round" stroke-linejoin="round" fill="none" /><path d="M1.8750478,-0.4799652 L1.8679677,-0.4116058 1.8679677,-0.4116058 1.8789693,-0.4094238 1.8887807,-0.4058075 1.8974019,-0.4007568 1.9048329,-0.3942718 1.9048329,-0.3942718 1.9107076,-0.386795 1.9149038,-0.3787689 1.9174215,-0.3701935 1.9182607,-0.3610687 1.9182607,-0.3610687 1.9171773,-0.3507385 1.9139272,-0.3412323 1.9085103,-0.33255 1.9009267,-0.3246918 1.9009267,-0.3246918 1.8962575,-0.3212013 1.891039,-0.3181762 1.8852712,-0.3156166 1.878954,-0.3135223 1.8720876,-0.3118934 1.8646718,-0.31073 1.8567067,-0.3100319 1.8481923,-0.3097992 1.8481923,-0.3097992 1.840212,-0.3100319 1.8327504,-0.31073 1.8258077,-0.3118934 1.8193837,-0.3135223 1.8134786,-0.3156166 1.8080922,-0.3181762 1.8032247,-0.3212013 1.7988759,-0.3246918 1.7988759,-0.3246918 1.7916127,-0.3325805 1.7864247,-0.3415985 1.783312,-0.3517456 1.7822744,-0.3630218 1.7822744,-0.3630218 1.7826825,-0.3703117 1.783907,-0.3774109 1.7859479,-0.3843193 1.7888051,-0.391037 1.7924787,-0.3975639 1.7969686,-0.4039001 1.8022748,-0.4100456 1.8083974,-0.4160003 1.8003408,-0.4716644 1.6140615,-0.4365082 1.6140615,-0.2551117 1.6782704,-0.2551117 1.6782704,-0.3845062 1.7390615,-0.3952484 1.7390615,-0.3952484 1.7340413,-0.3837127 1.7304555,-0.372055 1.728304,-0.3602752 1.7275869,-0.3483734 1.7275869,-0.3483734 1.7281057,-0.3371773 1.7296621,-0.326416 1.732256,-0.3160896 1.7358876,-0.3061981 1.7405568,-0.2967415 1.7462636,-0.2877197 1.753008,-0.2791328 1.76079,-0.2709808 1.76079,-0.2709808 1.7693998,-0.2635422 1.7786275,-0.2570953 1.7884732,-0.2516403 1.798937,-0.2471771 1.8100186,-0.2437057 1.8217183,-0.2412262 1.834036,-0.2397384 1.8469716,-0.2392425 1.8469716,-0.2392425 1.8578702,-0.2396431 1.8684713,-0.2408447 1.8787748,-0.2428474 1.8887807,-0.2456512 1.8984891,-0.2492561 1.9079,-0.2536621 1.9170133,-0.2588691 1.925829,-0.2648773 1.925829,-0.2648773 1.9369298,-0.2740288 1.9465505,-0.2840271 1.954691,-0.2948723 1.9613515,-0.3065643 1.9665319,-0.3191032 1.9702321,-0.332489 1.9724523,-0.3467216 1.9731923,-0.3618011 1.9731923,-0.3618011 1.9727765,-0.3739052 1.9715291,-0.385437 1.9694501,-0.3963966 1.9665395,-0.406784 1.9627973,-0.4165993 1.9582235,-0.4258423 1.952818,-0.4345131 1.946581,-0.4426117 1.946581,-0.4426117 1.9396421,-0.4500313 1.9321309,-0.456665 1.9240476,-0.4625129 1.915392,-0.4675751 1.9061643,-0.4718513 1.8963643,-0.4753418 1.8859922,-0.4780464 1.8750478,-0.4799652z" transform="matrix(1,0,0,-1,0.2342002,4.053489)" stroke="rgb(100,100,100)" stroke-width="0.0010cm" stroke-linecap="round" stroke-linejoin="round" fill="none" /><path d="M1.6975576,-0.2023773 L1.6975576,-0.2023773 1.6859227,-0.2020492 1.6750661,-0.201065 1.6649877,-0.1994247 1.6556874,-0.1971283 1.6471654,-0.1941757 1.6394216,-0.190567 1.6324559,-0.1863022 1.6262685,-0.1813812 1.6262685,-0.1813812 1.6208326,-0.1758384 1.6161214,-0.1698303 1.612135,-0.1633568 1.6088735,-0.1564178 1.6063367,-0.1490135 1.6045247,-0.1411438 1.6034375,-0.1328087 1.6030751,-0.1240082 1.6030751,-0.1240082 1.6034375,-0.1149254 1.6045247,-0.1063537 1.6063367,-0.0982933 1.6088735,-0.090744 1.612135,-0.0837059 1.6161214,-0.0771789 1.6208326,-0.0711632 1.6262685,-0.0656585 1.6262685,-0.0656585 1.6324025,-0.0606804 1.63933,-0.0563659 1.647051,-0.0527153 1.6555654,-0.0497284 1.6648732,-0.0474052 1.6749746,-0.0457458 1.6858693,-0.0447502 1.6975576,-0.0444183 1.6975576,-0.0444183 1.7091924,-0.0447502 1.720049,-0.0457458 1.7301274,-0.0474052 1.7394277,-0.0497284 1.7479497,-0.0527153 1.7556935,-0.0563659 1.7626592,-0.0606804 1.7688466,-0.0656585 1.7688466,-0.0656585 1.7742826,-0.0711441 1.7789937,-0.0771026 1.7829801,-0.0835342 1.7862416,-0.0904388 1.7887784,-0.0978164 1.7905904,-0.1056671 1.7916776,-0.1139908 1.79204,-0.1227875 1.79204,-0.1227875 1.7916814,-0.1318741 1.7906057,-0.1404571 1.7888127,-0.1485367 1.7863027,-0.1561126 1.7830754,-0.1631851 1.779131,-0.169754 1.7744695,-0.1758194 1.7690908,-0.1813812 1.7690908,-0.1813812 1.7628995,-0.1863022 1.7559224,-0.190567 1.7481595,-0.1941757 1.7396108,-0.1971283 1.7302762,-0.1994247 1.7201558,-0.201065 1.7092496,-0.2020492 1.6975576,-0.2023773z" transform="matrix(1,0,0,-1,0.2342002,4.053489)" stroke="rgb(100,100,100)" stroke-width="0.0010cm" stroke-linecap="round" stroke-linejoin="round" fill="none" /><path d="M1.6970693,-0.1489105 L1.6970693,-0.1489105 1.7054387,-0.1487846 1.713091,-0.148407 1.7200261,-0.1477775 1.7262441,-0.1468963 1.7317449,-0.1457634 1.7365285,-0.1443786 1.740595,-0.1427421 1.7439443,-0.1408539 1.7439443,-0.1408539 1.7477895,-0.1375122 1.7505361,-0.1335907 1.752184,-0.1290893 1.7527333,-0.1240082 1.7527333,-0.1240082 1.752184,-0.1188202 1.7505361,-0.1142425 1.7477895,-0.1102752 1.7439443,-0.1069183 1.7439443,-0.1069183 1.740595,-0.1050873 1.7365285,-0.1035003 1.7317449,-0.1021576 1.7262441,-0.1010589 1.7200261,-0.1002044 1.713091,-0.0995941 1.7054387,-0.0992279 1.6970693,-0.0991058 1.6970693,-0.0991058 1.6887036,-0.0992279 1.6810628,-0.0995941 1.6741468,-0.1002044 1.6679555,-0.1010589 1.662489,-0.1021576 1.6577474,-0.1035003 1.6537305,-0.1050873 1.6504384,-0.1069183 1.6504384,-0.1069183 1.6464864,-0.1102752 1.6436635,-0.1142425 1.6419698,-0.1188202 1.6414052,-0.1240082 1.6414052,-0.1240082 1.6419545,-0.1290893 1.6436025,-0.1335907 1.6463491,-0.1375122 1.6501943,-0.1408539 1.6501943,-0.1408539 1.6535436,-0.1427421 1.65761,-0.1443786 1.6623937,-0.1457634 1.6678945,-0.1468963 1.6741124,-0.1477775 1.6810475,-0.148407 1.6886998,-0.1487846 1.6970693,-0.1489105z" transform="matrix(1,0,0,-1,0.2342002,4.053489)" stroke="rgb(100,100,100)" stroke-width="0.0010cm" stroke-linecap="round" stroke-linejoin="round" fill="none" /><path d="M1.9807607,-0.0717621 L1.9807607,-0.1225433 1.6030751,0.0681305 1.6030751,0.1174469 1.9807607,-0.0717621z" transform="matrix(1,0,0,-1,0.2342002,4.053489)" stroke="rgb(100,100,100)" stroke-width="0.0010cm" stroke-linecap="round" stroke-linejoin="round" fill="none" /><path d="M1.8867665,0.0390778 L1.8867665,0.0390778 1.8751317,0.0394058 1.8642751,0.04039 1.8541967,0.0420304 1.8448964,0.0443268 1.8363744,0.0472794 1.8286306,0.0508881 1.8216649,0.0551529 1.8154775,0.0600739 1.8154775,0.0600739 1.8100415,0.0656243 1.8053304,0.0716553 1.801344,0.078167 1.7980825,0.0851593 1.7955457,0.0926323 1.7937337,0.100586 1.7926465,0.1090203 1.7922841,0.1179352 1.7922841,0.1179352 1.7926465,0.1269036 1.7937337,0.135376 1.7955457,0.1433525 1.7980825,0.1508332 1.801344,0.1578179 1.8053304,0.1643067 1.8100415,0.1702996 1.8154775,0.1757965 1.8154775,0.1757965 1.8216649,0.1807747 1.8286306,0.1850891 1.8363744,0.1887398 1.8448964,0.1917267 1.8541967,0.1940499 1.8642751,0.1957093 1.8751317,0.1967049 1.8867665,0.1970368 1.8867665,0.1970368 1.8984586,0.1967049 1.9093648,0.1957093 1.9194852,0.1940499 1.9288198,0.1917267 1.9373685,0.1887398 1.9451314,0.1850891 1.9521085,0.1807747 1.9582997,0.1757965 1.9582997,0.1757965 1.9637357,0.170311 1.9684468,0.1643524 1.9724332,0.1579209 1.9756948,0.1510163 1.9782315,0.1436386 1.9800435,0.135788 1.9811307,0.1274643 1.9814931,0.1186676 1.9814931,0.1186676 1.9811307,0.109581 1.9800435,0.1009979 1.9782315,0.0929184 1.9756948,0.0853424 1.9724332,0.07827 1.9684468,0.0717011 1.9637357,0.0656357 1.9582997,0.0600739 1.9582997,0.0600739 1.9521085,0.0551529 1.9451314,0.0508881 1.9373685,0.0472794 1.9288198,0.0443268 1.9194852,0.0420304 1.9093648,0.04039 1.8984586,0.0394058 1.8867665,0.0390778z" transform="matrix(1,0,0,-1,0.2342002,4.053489)" stroke="rgb(100,100,100)" stroke-width="0.0010cm" stroke-linecap="round" stroke-linejoin="round" fill="none" /><path d="M1.8865224,0.0925446 L1.8865224,0.0925446 1.894888,0.0926705 1.9025289,0.0930481 1.9094449,0.0936775 1.9156362,0.0945587 1.9211026,0.0956917 1.9258443,0.0970764 1.9298612,0.0987129 1.9331533,0.1006012 1.9331533,0.1006012 1.9371053,0.1039429 1.9399282,0.1078644 1.9416219,0.1123657 1.9421865,0.1174469 1.9421865,0.1174469 1.9416371,0.1226197 1.9399892,0.1271515 1.9372426,0.1310425 1.9333974,0.1342926 1.9333974,0.1342926 1.9300481,0.1361809 1.9259816,0.1378174 1.921198,0.1392021 1.9156972,0.1403351 1.9094793,0.1412163 1.9025441,0.1418457 1.8948918,0.1422234 1.8865224,0.1423493 1.8865224,0.1423493 1.878153,0.1422272 1.8705007,0.141861 1.8635656,0.1412506 1.8573476,0.1403961 1.8518468,0.1392975 1.8470632,0.1379547 1.8429967,0.1363678 1.8396474,0.1345368 1.8396474,0.1345368 1.8358022,0.1311798 1.8330556,0.1272125 1.8314077,0.1226349 1.8308583,0.1174469 1.8308583,0.1174469 1.8314077,0.1122742 1.8330556,0.1077423 1.8358022,0.1038513 1.8396474,0.1006012 1.8396474,0.1006012 1.8429967,0.0987129 1.8470632,0.0970764 1.8518468,0.0956917 1.8573476,0.0945587 1.8635656,0.0936775 1.8705007,0.0930481 1.878153,0.0926705 1.8865224,0.0925446z" transform="matrix(1,0,0,-1,0.2342002,4.053489)" stroke="rgb(100,100,100)" stroke-width="0.0010cm" stroke-linecap="round" stroke-linejoin="round" fill="none" /><path d="M0.0377725,1.1604166 L0.0306924,1.2287759 0.0306924,1.2287759 0.041694,1.2309579 0.0515054,1.2345743 0.0601266,1.2396249 0.0675576,1.2461099 0.0675576,1.2461099 0.0734323,1.2535867 0.0776284,1.2616128 0.0801461,1.2701883 0.0809854,1.279313 0.0809854,1.279313 0.079902,1.2896432 0.0766519,1.2991495 0.071235,1.3078317 0.0636514,1.31569 0.0636514,1.31569 0.0589822,1.3191804 0.0537637,1.3222055 0.0479959,1.3247652 0.0416787,1.3268594 0.0348123,1.3284883 0.0273965,1.3296518 0.0194314,1.3303499 0.010917,1.3305826 0.010917,1.3305826 0.0029367,1.3303499 -0.0045249,1.3296518 -0.0114676,1.3284883 -0.0178916,1.3268594 -0.0237967,1.3247652 -0.0291831,1.3222055 -0.0340506,1.3191804 -0.0383994,1.31569 -0.0383994,1.31569 -0.0456626,1.3078012 -0.0508506,1.2987833 -0.0539634,1.2886362 -0.055001,1.2773599 -0.055001,1.2773599 -0.0545928,1.27007 -0.0533683,1.2629709 -0.0513274,1.2560625 -0.0484702,1.2493448 -0.0447966,1.2428178 -0.0403067,1.2364816 -0.0350005,1.2303361 -0.0288779,1.2243814 -0.0369346,1.1687173 -0.2232139,1.2038736 -0.2232139,1.3852701 -0.1590049,1.3852701 -0.1590049,1.2558755 -0.0982139,1.2451334 -0.0982139,1.2451334 -0.103234,1.256669 -0.1068198,1.2683267 -0.1089713,1.2801065 -0.1096885,1.2920084 -0.1096885,1.2920084 -0.1091697,1.3032045 -0.1076133,1.3139657 -0.1050193,1.3242921 -0.1013877,1.3341836 -0.0967185,1.3436403 -0.0910117,1.352662 -0.0842673,1.3612489 -0.0764853,1.3694009 -0.0764853,1.3694009 -0.0678756,1.3768396 -0.0586478,1.3832864 -0.0488021,1.3887414 -0.0383384,1.3932046 -0.0272567,1.396676 -0.015557,1.3991556 -0.0032393,1.4006433 0.0096963,1.4011392 0.0096963,1.4011392 0.0205949,1.4007387 0.0311959,1.399537 0.0414994,1.3975343 0.0515054,1.3947305 0.0612138,1.3911256 0.0706246,1.3867197 0.079738,1.3815126 0.0885537,1.3755044 0.0885537,1.3755044 0.0996545,1.366353 0.1092752,1.3563547 0.1174157,1.3455095 0.1240762,1.3338174 0.1292565,1.3212785 0.1329568,1.3078927 0.135177,1.2936601 0.135917,1.2785806 0.135917,1.2785806 0.1355012,1.2664766 0.1342538,1.2549448 0.1321748,1.2439851 0.1292642,1.2335977 0.125522,1.2237825 0.1209481,1.2145395 0.1155427,1.2058687 0.1093057,1.1977701 0.1093057,1.1977701 0.1023667,1.1903505 0.0948556,1.1837167 0.0867723,1.1778688 0.0781167,1.1728067 0.068889,1.1685304 0.059089,1.16504 0.0487168,1.1623353 0.0377725,1.1604166z" transform="matrix(1,0,0,-1,0.2342002,4.053489)" stroke="rgb(100,100,100)" stroke-width="0.0010cm" stroke-linecap="round" stroke-linejoin="round" fill="none" /><path d="M-0.2295615,1.553483 L-0.2295615,1.553483 -0.2289817,1.5661287 -0.2272422,1.5780649 -0.224343,1.5892915 -0.2202842,1.5998086 -0.2150657,1.6096162 -0.2086875,1.6187143 -0.2011496,1.6271028 -0.1924521,1.6347818 -0.1924521,1.6347818 -0.1805617,1.6429643 -0.1668631,1.6500558 -0.1513564,1.6560564 -0.1340415,1.6609659 -0.1149184,1.6647844 -0.0939872,1.6675119 -0.0712478,1.6691484 -0.0467002,1.6696939 -0.0467002,1.6696939 -0.0222022,1.6691446 0.0005105,1.6674966 0.0214379,1.66475 0.0405801,1.6609048 0.057937,1.655961 0.0735086,1.6499185 0.0872949,1.6427774 0.0992959,1.6345376 0.0992959,1.6345376 0.107879,1.6269159 0.1153176,1.618577 0.1216119,1.6095209 0.1267617,1.5997476 0.1307672,1.5892572 0.1336282,1.5780496 0.1353448,1.5661249 0.135917,1.553483 0.135917,1.553483 0.1352914,1.5407381 0.1334146,1.5286264 0.1302865,1.517148 0.1259072,1.5063028 0.1202767,1.4960908 0.113395,1.4865121 0.1052621,1.4775667 0.0958779,1.4692544 0.0958779,1.4692544 0.0848268,1.4617586 0.0718148,1.4552621 0.0568421,1.4497652 0.0399087,1.4452676 0.0210145,1.4417696 0.0001596,1.4392709 -0.0226561,1.4377717 -0.0474326,1.437272 -0.0474326,1.437272 -0.0718161,1.4378213 -0.0944297,1.4394693 -0.1152732,1.4422159 -0.1343467,1.4460611 -0.1516501,1.4510049 -0.1671836,1.4570474 -0.180947,1.4641885 -0.1929404,1.4724283 -0.1929404,1.4724283 -0.2015235,1.48005 -0.2089621,1.488389 -0.2152564,1.4974451 -0.2204062,1.5072183 -0.2244117,1.5177087 -0.2272727,1.5289163 -0.2289893,1.5408411 -0.2295615,1.553483z" transform="matrix(1,0,0,-1,0.2342002,4.053489)" stroke="rgb(100,100,100)" stroke-width="0.0010cm" stroke-linecap="round" stroke-linejoin="round" fill="none" /><path d="M-0.1726767,1.553483 L-0.1726767,1.553483 -0.1721732,1.5474252 -0.1706626,1.5417032 -0.1681449,1.5363168 -0.1646201,1.5312662 -0.1646201,1.5312662 -0.1599204,1.526658 -0.1536338,1.5225992 -0.1457602,1.5190896 -0.1362998,1.5161294 -0.1362998,1.5161294 -0.1290786,1.5144701 -0.1207206,1.5130319 -0.1112258,1.511815 -0.1005942,1.5108194 -0.0888259,1.510045 -0.0759208,1.5094919 -0.0618789,1.50916 -0.0467002,1.5090494 -0.0467002,1.5090494 -0.0315673,1.5091485 -0.0176627,1.5094461 -0.0049865,1.509942 0.0064614,1.5106363 0.016681,1.5115289 0.0256723,1.5126199 0.0334352,1.5139093 0.0399697,1.515397 0.0399697,1.515397 0.0507119,1.5187692 0.059501,1.5225381 0.0663369,1.5267038 0.0712197,1.5312662 0.0712197,1.5312662 0.0746377,1.5363168 0.0770791,1.5417032 0.078544,1.5474252 0.0790322,1.553483 0.0790322,1.553483 0.078544,1.5595407 0.0770791,1.5652627 0.0746377,1.5706491 0.0712197,1.5756998 0.0712197,1.5756998 0.0664132,1.5803079 0.0600503,1.5843667 0.052131,1.5878763 0.0426553,1.5908365 0.0426553,1.5908365 0.0354913,1.5924959 0.0271829,1.593934 0.0177301,1.5951509 0.0071328,1.5961465 -0.0046088,1.5969209 -0.0174949,1.597474 -0.0315253,1.5978059 -0.0467002,1.5979166 -0.0467002,1.5979166 -0.0618293,1.5978174 -0.0757224,1.5975198 -0.0883796,1.5970239 -0.0998008,1.5963296 -0.109986,1.595437 -0.1189353,1.594346 -0.1266486,1.5930566 -0.133126,1.5915689 -0.133126,1.5915689 -0.143975,1.5881814 -0.1528403,1.5843667 -0.159722,1.5801248 -0.1646201,1.5754556 -0.1646201,1.5754556 -0.1681449,1.5705118 -0.1706626,1.5652017 -0.1721732,1.5595254 -0.1726767,1.553483z" transform="matrix(1,0,0,-1,0.2342002,4.053489)" stroke="rgb(100,100,100)" stroke-width="0.0010cm" stroke-linecap="round" stroke-linejoin="round" fill="none" /><path d="M-0.1397178,1.7160806 L-0.1397178,1.7160806 -0.1513526,1.7164087 -0.1622092,1.7173929 -0.1722876,1.7190332 -0.1815879,1.7213296 -0.1901099,1.7242822 -0.1978537,1.7278909 -0.2048194,1.7321558 -0.2110068,1.7370767 -0.2110068,1.7370767 -0.2164428,1.7426195 -0.2211539,1.7486276 -0.2251403,1.7551012 -0.2284018,1.7620401 -0.2309386,1.7694444 -0.2327506,1.7773141 -0.2338378,1.7856492 -0.2342002,1.7944498 -0.2342002,1.7944498 -0.2338378,1.8035326 -0.2327506,1.8121042 -0.2309386,1.8201646 -0.2284018,1.8277139 -0.2251403,1.834752 -0.2211539,1.841279 -0.2164428,1.8472948 -0.2110068,1.8527994 -0.2110068,1.8527994 -0.2048728,1.8577775 -0.1979453,1.862092 -0.1902244,1.8657426 -0.1817099,1.8687295 -0.1724021,1.8710527 -0.1623008,1.8727121 -0.151406,1.8737077 -0.1397178,1.8740396 -0.1397178,1.8740396 -0.1280829,1.8737077 -0.1172263,1.8727121 -0.1071479,1.8710527 -0.0978476,1.8687295 -0.0893256,1.8657426 -0.0815818,1.862092 -0.0746161,1.8577775 -0.0684287,1.8527994 -0.0684287,1.8527994 -0.0629928,1.8473138 -0.0582816,1.8413553 -0.0542952,1.8349237 -0.0510337,1.8280191 -0.0484969,1.8206415 -0.0466849,1.8127908 -0.0455977,1.8044672 -0.0452353,1.7956705 -0.0452353,1.7956705 -0.0455939,1.7865839 -0.0466697,1.7780008 -0.0484626,1.7699213 -0.0509726,1.7623453 -0.0541999,1.7552728 -0.0581443,1.7487039 -0.0628058,1.7426385 -0.0681846,1.7370767 -0.0681846,1.7370767 -0.0743758,1.7321558 -0.0813529,1.7278909 -0.0891158,1.7242822 -0.0976645,1.7213296 -0.1069991,1.7190332 -0.1171195,1.7173929 -0.1280257,1.7164087 -0.1397178,1.7160806z" transform="matrix(1,0,0,-1,0.2342002,4.053489)" stroke="rgb(100,100,100)" stroke-width="0.0010cm" stroke-linecap="round" stroke-linejoin="round" fill="none" /><path d="M-0.140206,1.7695474 L-0.140206,1.7695474 -0.1318366,1.7696733 -0.1241843,1.770051 -0.1172492,1.7706804 -0.1110312,1.7715616 -0.1055304,1.7726945 -0.1007468,1.7740793 -0.0966803,1.7757158 -0.093331,1.7776041 -0.093331,1.7776041 -0.0894858,1.7809457 -0.0867392,1.7848672 -0.0850913,1.7893686 -0.084542,1.7944498 -0.084542,1.7944498 -0.0850913,1.7996377 -0.0867392,1.8042154 -0.0894858,1.8081827 -0.093331,1.8115396 -0.093331,1.8115396 -0.0966803,1.8133707 -0.1007468,1.8149576 -0.1055304,1.8163003 -0.1110312,1.817399 -0.1172492,1.8182535 -0.1241843,1.8188638 -0.1318366,1.81923 -0.140206,1.8193521 -0.140206,1.8193521 -0.1485717,1.81923 -0.1562125,1.8188638 -0.1631286,1.8182535 -0.1693198,1.817399 -0.1747863,1.8163003 -0.1795279,1.8149576 -0.1835448,1.8133707 -0.1868369,1.8115396 -0.1868369,1.8115396 -0.1907889,1.8081827 -0.1936118,1.8042154 -0.1953055,1.7996377 -0.1958701,1.7944498 -0.1958701,1.7944498 -0.1953208,1.7893686 -0.1936728,1.7848672 -0.1909263,1.7809457 -0.187081,1.7776041 -0.187081,1.7776041 -0.1837317,1.7757158 -0.1796653,1.7740793 -0.1748816,1.7726945 -0.1693808,1.7715616 -0.1631629,1.7706804 -0.1562278,1.770051 -0.1485755,1.7696733 -0.140206,1.7695474z" transform="matrix(1,0,0,-1,0.2342002,4.053489)" stroke="rgb(100,100,100)" stroke-width="0.0010cm" stroke-linecap="round" stroke-linejoin="round" fill="none" /><path d="M0.1434854,1.8466959 L0.1434854,1.7959146 -0.2342002,1.9865884 -0.2342002,2.0359048 0.1434854,1.8466959z" transform="matrix(1,0,0,-1,0.2342002,4.053489)" stroke="rgb(100,100,100)" stroke-width="0.0010cm" stroke-linecap="round" stroke-linejoin="round" fill="none" /><path d="M0.0494912,1.9575357 L0.0494912,1.9575357 0.0378564,1.9578638 0.0269998,1.9588479 0.0169213,1.9604883 0.0076211,1.9627847 -0.0009009,1.9657373 -0.0086448,1.969346 -0.0156104,1.9736108 -0.0217978,1.9785318 -0.0217978,1.9785318 -0.0272338,1.9840822 -0.0319449,1.9901132 -0.0359313,1.9966249 -0.0391929,2.0036172 -0.0417296,2.0110902 -0.0435416,2.0190439 -0.0446288,2.0274782 -0.0449912,2.0363931 -0.0449912,2.0363931 -0.0446288,2.0453615 -0.0435416,2.0538339 -0.0417296,2.0618104 -0.0391929,2.0692911 -0.0359313,2.0762758 -0.0319449,2.0827646 -0.0272338,2.0887575 -0.0217978,2.0942544 -0.0217978,2.0942544 -0.0156104,2.0992326 -0.0086448,2.103547 -0.0009009,2.1071977 0.0076211,2.1101846 0.0169213,2.1125078 0.0269998,2.1141672 0.0378564,2.1151628 0.0494912,2.1154947 0.0494912,2.1154947 0.0611833,2.1151628 0.0720895,2.1141672 0.0822099,2.1125078 0.0915444,2.1101846 0.1000932,2.1071977 0.1078561,2.103547 0.1148332,2.0992326 0.1210244,2.0942544 0.1210244,2.0942544 0.1264604,2.0887689 0.1311715,2.0828104 0.1351579,2.0763788 0.1384194,2.0694742 0.1409562,2.0620965 0.1427682,2.0542459 0.1438554,2.0459222 0.1442178,2.0371255 0.1442178,2.0371255 0.1438554,2.0280389 0.1427682,2.0194559 0.1409562,2.0113763 0.1384194,2.0038003 0.1351579,1.9967279 0.1311715,1.990159 0.1264604,1.9840936 0.1210244,1.9785318 0.1210244,1.9785318 0.1148332,1.9736108 0.1078561,1.969346 0.1000932,1.9657373 0.0915444,1.9627847 0.0822099,1.9604883 0.0720895,1.9588479 0.0611833,1.9578638 0.0494912,1.9575357z" transform="matrix(1,0,0,-1,0.2342002,4.053489)" stroke="rgb(100,100,100)" stroke-width="0.0010cm" stroke-linecap="round" stroke-linejoin="round" fill="none" /><path d="M0.0492471,2.0110025 L0.0492471,2.0110025 0.0576127,2.0111284 0.0652536,2.011506 0.0721696,2.0121355 0.0783609,2.0130167 0.0838273,2.0141496 0.088569,2.0155344 0.0925859,2.0171709 0.0958779,2.0190591 0.0958779,2.0190591 0.09983,2.0224008 0.1026528,2.0263223 0.1043466,2.0308237 0.1049111,2.0359048 0.1049111,2.0359048 0.1043618,2.0410776 0.1027139,2.0456094 0.0999673,2.0495004 0.0961221,2.0527505 0.0961221,2.0527505 0.0927728,2.0546388 0.0887063,2.0562753 0.0839227,2.0576601 0.0784219,2.058793 0.0722039,2.0596742 0.0652688,2.0603036 0.0576165,2.0606813 0.0492471,2.0608072 0.0492471,2.0608072 0.0408776,2.0606851 0.0332254,2.0603189 0.0262902,2.0597085 0.0200723,2.0588541 0.0145715,2.0577554 0.0097879,2.0564126 0.0057214,2.0548257 0.0023721,2.0529947 0.0023721,2.0529947 -0.0014731,2.0496377 -0.0042197,2.0456705 -0.0058677,2.0410928 -0.006417,2.0359048 -0.006417,2.0359048 -0.0058677,2.0307321 -0.0042197,2.0262002 -0.0014731,2.0223093 0.0023721,2.0190591 0.0023721,2.0190591 0.0057214,2.0171709 0.0097879,2.0155344 0.0145715,2.0141496 0.0200723,2.0130167 0.0262902,2.0121355 0.0332254,2.011506 0.0408776,2.0111284 0.0492471,2.0110025z" transform="matrix(1,0,0,-1,0.2342002,4.053489)" stroke="rgb(100,100,100)" stroke-width="0.0010cm" stroke-linecap="round" stroke-linejoin="round" fill="none" /><path d="M1.6530518,3.0974343 L1.5893311,3.0974343 1.5893311,3.3320534 1.6391358,3.3320534 1.6391358,3.3320534 1.646666,3.324775 1.6549744,3.317466 1.664061,3.3101266 1.6739258,3.3027566 1.6845688,3.295356 1.69599,3.287925 1.7081894,3.2804635 1.721167,3.2729714 1.721167,3.2729714 1.7483277,3.2588418 1.7763428,3.2464821 1.8052124,3.2358925 1.8349366,3.227073 1.8349366,3.227073 1.8497528,3.2234147 1.8641724,3.2202523 1.8781952,3.2175858 1.8918213,3.2154152 1.9050507,3.2137406 1.9178833,3.2125619 1.9303192,3.211879 1.9423584,3.2116921 1.9423584,3.14553 1.9423584,3.14553 1.923758,3.1463807 1.9050659,3.1480782 1.8862824,3.1506226 1.8674073,3.1540139 1.8484406,3.158252 1.8293824,3.163337 1.8102326,3.1692689 1.7909912,3.1760476 1.7909912,3.1760476 1.7719597,3.1836121 1.7534394,3.1917794 1.7354302,3.2005494 1.7179322,3.2099221 1.7009453,3.2198975 1.6844696,3.2304757 1.6685051,3.2416566 1.6530518,3.2534402 1.6530518,3.0974343z" transform="matrix(1,0,0,-1,0.2342002,4.053489)" stroke="rgb(100,100,100)" stroke-width="0.0010cm" stroke-linecap="round" stroke-linejoin="round" fill="none" /><path d="M1.8503174,3.376487 L1.8432373,3.4448464 1.8432373,3.4448464 1.8542389,3.4470284 1.8640503,3.4506447 1.8726715,3.4556954 1.8801026,3.4621804 1.8801026,3.4621804 1.8859772,3.4696572 1.8901734,3.4776833 1.8926911,3.4862588 1.8935303,3.4953835 1.8935303,3.4953835 1.8924469,3.5057137 1.8891968,3.5152199 1.8837799,3.5239022 1.8761963,3.5317605 1.8761963,3.5317605 1.8715271,3.5352509 1.8663086,3.538276 1.8605408,3.5408356 1.8542237,3.5429299 1.8473572,3.5445588 1.8399414,3.5457223 1.8319763,3.5464203 1.8234619,3.546653 1.8234619,3.546653 1.8154816,3.5464203 1.80802,3.5457223 1.8010773,3.5445588 1.7946533,3.5429299 1.7887482,3.5408356 1.7833618,3.538276 1.7784943,3.5352509 1.7741455,3.5317605 1.7741455,3.5317605 1.7668824,3.5238717 1.7616944,3.5148537 1.7585816,3.5047066 1.757544,3.4934304 1.757544,3.4934304 1.7579521,3.4861405 1.7591767,3.4790413 1.7612175,3.4721329 1.7640747,3.4654152 1.7677483,3.4588883 1.7722382,3.4525521 1.7775444,3.4464066 1.783667,3.4404519 1.7756104,3.3847878 1.5893311,3.4199441 1.5893311,3.6013405 1.6535401,3.6013405 1.6535401,3.471946 1.7143311,3.4612038 1.7143311,3.4612038 1.7093109,3.4727395 1.7057251,3.4843972 1.7035736,3.496177 1.7028565,3.5080788 1.7028565,3.5080788 1.7033753,3.519275 1.7049317,3.5300362 1.7075257,3.5403626 1.7111573,3.5502541 1.7158264,3.5597108 1.7215332,3.5687325 1.7282776,3.5773194 1.7360596,3.5854714 1.7360596,3.5854714 1.7446694,3.5929101 1.7538971,3.5993569 1.7637429,3.6048119 1.7742066,3.6092751 1.7852883,3.6127465 1.7969879,3.615226 1.8093056,3.6167138 1.8222412,3.6172097 1.8222412,3.6172097 1.8331398,3.6168091 1.8437409,3.6156075 1.8540444,3.6136048 1.8640503,3.610801 1.8737587,3.6071961 1.8831696,3.6027901 1.8922829,3.5975831 1.9010987,3.5915749 1.9010987,3.5915749 1.9121994,3.5824235 1.9218201,3.5724251 1.9299607,3.56158 1.9366211,3.5498879 1.9418015,3.537349 1.9455017,3.5239632 1.9477219,3.5097306 1.9484619,3.4946511 1.9484619,3.4946511 1.9480461,3.4825471 1.9467987,3.4710152 1.9447197,3.4600556 1.9418091,3.4496682 1.9380669,3.439853 1.9334931,3.43061 1.9280876,3.4219391 1.9218506,3.4138405 1.9218506,3.4138405 1.9149117,3.406421 1.9074005,3.3997872 1.8993172,3.3939393 1.8906617,3.3888772 1.8814339,3.3846009 1.8716339,3.3811104 1.8612618,3.3784058 1.8503174,3.376487z" transform="matrix(1,0,0,-1,0.2342002,4.053489)" stroke="rgb(100,100,100)" stroke-width="0.0010cm" stroke-linecap="round" stroke-linejoin="round" fill="none" /><path d="M1.6728272,3.6540749 L1.6728272,3.6540749 1.6611924,3.654403 1.6503357,3.6553872 1.6402573,3.6570275 1.6309571,3.6593239 1.622435,3.6622765 1.6146912,3.6658852 1.6077256,3.6701501 1.6015381,3.675071 1.6015381,3.675071 1.5961022,3.6806138 1.591391,3.6866219 1.5874047,3.6930955 1.5841431,3.7000344 1.5816063,3.7074387 1.5797943,3.7153084 1.5787072,3.7236436 1.5783448,3.7324441 1.5783448,3.7324441 1.5787072,3.7415269 1.5797943,3.7500985 1.5816063,3.7581589 1.5841431,3.7657082 1.5874047,3.7727463 1.591391,3.7792733 1.5961022,3.7852891 1.6015381,3.7907937 1.6015381,3.7907937 1.6076721,3.7957718 1.6145996,3.8000863 1.6223206,3.8037369 1.630835,3.8067238 1.6401429,3.809047 1.6502442,3.8107064 1.6611389,3.811702 1.6728272,3.8120339 1.6728272,3.8120339 1.684462,3.811702 1.6953186,3.8107064 1.7053971,3.809047 1.7146973,3.8067238 1.7232193,3.8037369 1.7309632,3.8000863 1.7379288,3.7957718 1.7441162,3.7907937 1.7441162,3.7907937 1.7495522,3.7853081 1.7542633,3.7793496 1.7582497,3.772918 1.7615113,3.7660134 1.764048,3.7586358 1.76586,3.7507851 1.7669472,3.7424615 1.7673096,3.7336648 1.7673096,3.7336648 1.766951,3.7245782 1.7658753,3.7159951 1.7640824,3.7079156 1.7615723,3.7003396 1.7583451,3.6932671 1.7544007,3.6866982 1.7497391,3.6806328 1.7443604,3.675071 1.7443604,3.675071 1.7381691,3.6701501 1.731192,3.6658852 1.7234291,3.6622765 1.7148804,3.6593239 1.7055458,3.6570275 1.6954254,3.6553872 1.6845192,3.654403 1.6728272,3.6540749z" transform="matrix(1,0,0,-1,0.2342002,4.053489)" stroke="rgb(100,100,100)" stroke-width="0.0010cm" stroke-linecap="round" stroke-linejoin="round" fill="none" /><path d="M1.6723389,3.7075417 L1.6723389,3.7075417 1.6807083,3.7076676 1.6883606,3.7080453 1.6952957,3.7086747 1.7015137,3.7095559 1.7070145,3.7106888 1.7117981,3.7120736 1.7158646,3.7137101 1.7192139,3.7155984 1.7192139,3.7155984 1.7230591,3.71894 1.7258057,3.7228615 1.7274536,3.7273629 1.728003,3.7324441 1.728003,3.7324441 1.7274536,3.737632 1.7258057,3.7422097 1.7230591,3.746177 1.7192139,3.7495339 1.7192139,3.7495339 1.7158646,3.751365 1.7117981,3.7529519 1.7070145,3.7542946 1.7015137,3.7553933 1.6952957,3.7562478 1.6883606,3.7568581 1.6807083,3.7572243 1.6723389,3.7573464 1.6723389,3.7573464 1.6639733,3.7572243 1.6563324,3.7568581 1.6494164,3.7562478 1.6432251,3.7553933 1.6377587,3.7542946 1.633017,3.7529519 1.6290001,3.751365 1.625708,3.7495339 1.625708,3.7495339 1.621756,3.746177 1.6189331,3.7422097 1.6172394,3.737632 1.6166748,3.7324441 1.6166748,3.7324441 1.6172242,3.7273629 1.6188721,3.7228615 1.6216187,3.71894 1.6254639,3.7155984 1.6254639,3.7155984 1.6288132,3.7137101 1.6328797,3.7120736 1.6376633,3.7106888 1.6431641,3.7095559 1.649382,3.7086747 1.6563172,3.7080453 1.6639695,3.7076676 1.6723389,3.7075417z" transform="matrix(1,0,0,-1,0.2342002,4.053489)" stroke="rgb(100,100,100)" stroke-width="0.0010cm" stroke-linecap="round" stroke-linejoin="round" fill="none" /><path d="M1.9560303,3.7846902 L1.9560303,3.7339089 1.5783448,3.9245827 1.5783448,3.9738991 1.9560303,3.7846902z" transform="matrix(1,0,0,-1,0.2342002,4.053489)" stroke="rgb(100,100,100)" stroke-width="0.0010cm" stroke-linecap="round" stroke-linejoin="round" fill="none" /><path d="M1.8620362,3.89553 L1.8620362,3.89553 1.8504013,3.8958581 1.8395447,3.8968423 1.8294663,3.8984826 1.820166,3.900779 1.811644,3.9037316 1.8039002,3.9073403 1.7969345,3.9116051 1.7907471,3.9165261 1.7907471,3.9165261 1.7853112,3.9220765 1.7806,3.9281075 1.7766136,3.9346192 1.7733521,3.9416115 1.7708153,3.9490845 1.7690033,3.9570382 1.7679161,3.9654725 1.7675537,3.9743874 1.7675537,3.9743874 1.7679161,3.9833558 1.7690033,3.9918282 1.7708153,3.9998047 1.7733521,4.0072854 1.7766136,4.0142701 1.7806,4.0207589 1.7853112,4.0267518 1.7907471,4.0322487 1.7907471,4.0322487 1.7969345,4.0372269 1.8039002,4.0415413 1.811644,4.045192 1.820166,4.0481789 1.8294663,4.0505021 1.8395447,4.0521615 1.8504013,4.0531571 1.8620362,4.053489 1.8620362,4.053489 1.8737282,4.0531571 1.8846344,4.0521615 1.8947548,4.0505021 1.9040894,4.0481789 1.9126381,4.045192 1.920401,4.0415413 1.9273781,4.0372269 1.9335694,4.0322487 1.9335694,4.0322487 1.9390053,4.0267632 1.9437165,4.0208047 1.9477028,4.0143731 1.9509644,4.0074685 1.9535012,4.0000908 1.9553131,3.9922402 1.9564003,3.9839165 1.9567627,3.9751198 1.9567627,3.9751198 1.9564003,3.9660332 1.9553131,3.9574502 1.9535012,3.9493706 1.9509644,3.9417946 1.9477028,3.9347222 1.9437165,3.9281533 1.9390053,3.9220879 1.9335694,3.9165261 1.9335694,3.9165261 1.9273781,3.9116051 1.920401,3.9073403 1.9126381,3.9037316 1.9040894,3.900779 1.8947548,3.8984826 1.8846344,3.8968423 1.8737282,3.8958581 1.8620362,3.89553z" transform="matrix(1,0,0,-1,0.2342002,4.053489)" stroke="rgb(100,100,100)" stroke-width="0.0010cm" stroke-linecap="round" stroke-linejoin="round" fill="none" /><path d="M1.861792,3.9489968 L1.861792,3.9489968 1.8701577,3.9491227 1.8777985,3.9495003 1.8847145,3.9501298 1.8909058,3.951011 1.8963723,3.9521439 1.9011139,3.9535287 1.9051308,3.9551652 1.9084229,3.9570534 1.9084229,3.9570534 1.9123749,3.9603951 1.9151978,3.9643166 1.9168915,3.968818 1.9174561,3.9738991 1.9174561,3.9738991 1.9169068,3.9790719 1.9152588,3.9836037 1.9125122,3.9874947 1.908667,3.9907448 1.908667,3.9907448 1.9053177,3.9926331 1.9012513,3.9942696 1.8964676,3.9956544 1.8909668,3.9967873 1.8847489,3.9976685 1.8778138,3.9982979 1.8701615,3.9986756 1.861792,3.9988015 1.861792,3.9988015 1.8534226,3.9986794 1.8457703,3.9983132 1.8388352,3.9977028 1.8326172,3.9968484 1.8271164,3.9957497 1.8223328,3.9944069 1.8182663,3.99282 1.814917,3.990989 1.814917,3.990989 1.8110718,3.987632 1.8083252,3.9836648 1.8066773,3.9790871 1.806128,3.9738991 1.806128,3.9738991 1.8066773,3.9687264 1.8083252,3.9641945 1.8110718,3.9603036 1.814917,3.9570534 1.814917,3.9570534 1.8182663,3.9551652 1.8223328,3.9535287 1.8271164,3.9521439 1.8326172,3.951011 1.8388352,3.9501298 1.8457703,3.9495003 1.8534226,3.9491227 1.861792,3.9489968z" transform="matrix(1,0,0,-1,0.2342002,4.053489)" stroke="rgb(100,100,100)" stroke-width="0.0010cm" stroke-linecap="round" stroke-linejoin="round" fill="none" /><path d="M4.3484906,2.1165192 L4.3484906,2.0479157 4.0899456,2.0479157 4.0899456,2.0479157 4.0984486,2.0383064 4.1063794,2.0282776 4.1137379,2.0178292 4.1205243,2.0069611 4.1267384,1.9956734 4.1323803,1.9839661 4.1374501,1.9718392 4.1419476,1.9592926 4.0796917,1.9592926 4.0796917,1.9592926 4.0743206,1.9730103 4.0669964,1.9873078 4.0577191,2.0021851 4.0464886,2.0176422 4.0464886,2.0176422 4.0401982,2.0252068 4.033656,2.0321533 4.026862,2.0384819 4.0198162,2.0441925 4.0125187,2.0492851 4.0049694,2.0537598 3.9971684,2.0576164 3.9891156,2.0608551 3.9891156,2.1165192 4.3484906,2.1165192z" transform="matrix(1,0,0,-1,0.2342002,4.053489)" stroke="rgb(100,100,100)" stroke-width="0.0010cm" stroke-linecap="round" stroke-linejoin="round" fill="none" /><path d="M3.9891156,2.335025 L3.9891156,2.335025 3.9896954,2.3476708 3.9914349,2.359607 3.9943341,2.3708336 3.9983929,2.3813507 4.0036114,2.3911583 4.0099896,2.4002564 4.0175274,2.4086449 4.0262249,2.4163239 4.0262249,2.4163239 4.0381153,2.4245064 4.0518139,2.4315979 4.0673207,2.4375984 4.0846356,2.442508 4.1037587,2.4463265 4.1246899,2.449054 4.1474293,2.4506905 4.1719769,2.451236 4.1719769,2.451236 4.1964749,2.4506867 4.2191876,2.4490387 4.240115,2.4462921 4.2592572,2.4424469 4.276614,2.4375031 4.2921856,2.4314606 4.3059719,2.4243195 4.317973,2.4160797 4.317973,2.4160797 4.326556,2.408458 4.3339947,2.400119 4.340289,2.3910629 4.3454388,2.3812897 4.3494442,2.3707993 4.3523053,2.3595917 4.3540219,2.347667 4.3545941,2.335025 4.3545941,2.335025 4.3539685,2.3222801 4.3520916,2.3101685 4.3489636,2.2986901 4.3445843,2.2878449 4.3389538,2.2776329 4.3320721,2.2680542 4.3239392,2.2591088 4.314555,2.2507965 4.314555,2.2507965 4.3035038,2.2433007 4.2904919,2.2368042 4.2755192,2.2313072 4.2585858,2.2268097 4.2396916,2.2233116 4.2188366,2.220813 4.1960209,2.2193138 4.1712445,2.2188141 4.1712445,2.2188141 4.1468609,2.2193634 4.1242474,2.2210114 4.1034039,2.223758 4.0843304,2.2276032 4.0670269,2.232547 4.0514935,2.2385895 4.0377301,2.2457306 4.0257367,2.2539704 4.0257367,2.2539704 4.0171536,2.2615921 4.0097149,2.2699311 4.0034207,2.2789871 3.9982708,2.2887604 3.9942654,2.2992508 3.9914044,2.3104584 3.9896878,2.3223831 3.9891156,2.335025z" transform="matrix(1,0,0,-1,0.2342002,4.053489)" stroke="rgb(100,100,100)" stroke-width="0.0010cm" stroke-linecap="round" stroke-linejoin="round" fill="none" /><path d="M4.0460003,2.335025 L4.0460003,2.335025 4.0465039,2.3289673 4.0480145,2.3232453 4.0505322,2.3178589 4.054057,2.3128082 4.054057,2.3128082 4.0587567,2.3082001 4.0650433,2.3041413 4.0729168,2.3006317 4.0823773,2.2976715 4.0823773,2.2976715 4.0895985,2.2960121 4.0979565,2.294574 4.1074513,2.2933571 4.1180828,2.2923615 4.1298512,2.2915871 4.1427563,2.291034 4.1567982,2.2907021 4.1719769,2.2905915 4.1719769,2.2905915 4.1871098,2.2906906 4.2010144,2.2909882 4.2136906,2.2914841 4.2251385,2.2921784 4.2353581,2.293071 4.2443493,2.294162 4.2521122,2.2954514 4.2586468,2.2969391 4.2586468,2.2969391 4.269389,2.3003113 4.2781781,2.3040802 4.285014,2.3082459 4.2898968,2.3128082 4.2898968,2.3128082 4.2933148,2.3178589 4.2957562,2.3232453 4.297221,2.3289673 4.2977093,2.335025 4.2977093,2.335025 4.297221,2.3410828 4.2957562,2.3468048 4.2933148,2.3521912 4.2898968,2.3572418 4.2898968,2.3572418 4.2850903,2.36185 4.2787274,2.3659088 4.2708081,2.3694184 4.2613324,2.3723786 4.2613324,2.3723786 4.2541684,2.374038 4.2458599,2.3754761 4.2364071,2.376693 4.2258099,2.3776886 4.2140683,2.378463 4.2011822,2.3790161 4.1871518,2.379348 4.1719769,2.3794586 4.1719769,2.3794586 4.1568478,2.3793595 4.1429547,2.3790619 4.1302975,2.378566 4.1188763,2.3778717 4.1086911,2.3769791 4.0997418,2.3758881 4.0920285,2.3745987 4.0855511,2.373111 4.0855511,2.373111 4.0747021,2.3697235 4.0658368,2.3659088 4.058955,2.3616669 4.054057,2.3569977 4.054057,2.3569977 4.0505322,2.3520539 4.0480145,2.3467438 4.0465039,2.3410675 4.0460003,2.335025z" transform="matrix(1,0,0,-1,0.2342002,4.053489)" stroke="rgb(100,100,100)" stroke-width="0.0010cm" stroke-linecap="round" stroke-linejoin="round" fill="none" /><path d="M3.9891156,2.6131012 L3.9891156,2.6131012 3.9896954,2.6257469 3.9914349,2.6376831 3.9943341,2.6489098 3.9983929,2.6594269 4.0036114,2.6692345 4.0099896,2.6783325 4.0175274,2.6867211 4.0262249,2.6944 4.0262249,2.6944 4.0381153,2.7025826 4.0518139,2.7096741 4.0673207,2.7156746 4.0846356,2.7205841 4.1037587,2.7244026 4.1246899,2.7271301 4.1474293,2.7287667 4.1719769,2.7293122 4.1719769,2.7293122 4.1964749,2.7287628 4.2191876,2.7271149 4.240115,2.7243683 4.2592572,2.7205231 4.276614,2.7155792 4.2921856,2.7095368 4.3059719,2.7023957 4.317973,2.6941559 4.317973,2.6941559 4.326556,2.6865341 4.3339947,2.6781952 4.340289,2.6691391 4.3454388,2.6593659 4.3494442,2.6488754 4.3523053,2.6376679 4.3540219,2.6257431 4.3545941,2.6131012 4.3545941,2.6131012 4.3539685,2.6003563 4.3520916,2.5882447 4.3489636,2.5767662 4.3445843,2.565921 4.3389538,2.5557091 4.3320721,2.5461304 4.3239392,2.5371849 4.314555,2.5288727 4.314555,2.5288727 4.3035038,2.5213768 4.2904919,2.5148804 4.2755192,2.5093834 4.2585858,2.5048859 4.2396916,2.5013878 4.2188366,2.4988892 4.1960209,2.49739 4.1712445,2.4968903 4.1712445,2.4968903 4.1468609,2.4974396 4.1242474,2.4990875 4.1034039,2.5018341 4.0843304,2.5056793 4.0670269,2.5106232 4.0514935,2.5166657 4.0377301,2.5238068 4.0257367,2.5320465 4.0257367,2.5320465 4.0171536,2.5396683 4.0097149,2.5480072 4.0034207,2.5570633 3.9982708,2.5668366 3.9942654,2.577327 3.9914044,2.5885346 3.9896878,2.6004593 3.9891156,2.6131012z" transform="matrix(1,0,0,-1,0.2342002,4.053489)" stroke="rgb(100,100,100)" stroke-width="0.0010cm" stroke-linecap="round" stroke-linejoin="round" fill="none" /><path d="M4.0460003,2.6131012 L4.0460003,2.6131012 4.0465039,2.6070435 4.0480145,2.6013214 4.0505322,2.5959351 4.054057,2.5908844 4.054057,2.5908844 4.0587567,2.5862763 4.0650433,2.5822174 4.0729168,2.5787079 4.0823773,2.5757477 4.0823773,2.5757477 4.0895985,2.5740883 4.0979565,2.5726502 4.1074513,2.5714333 4.1180828,2.5704376 4.1298512,2.5696633 4.1427563,2.5691101 4.1567982,2.5687783 4.1719769,2.5686676 4.1719769,2.5686676 4.1871098,2.5687668 4.2010144,2.5690644 4.2136906,2.5695603 4.2251385,2.5702545 4.2353581,2.5711472 4.2443493,2.5722382 4.2521122,2.5735275 4.2586468,2.5750153 4.2586468,2.5750153 4.269389,2.5783875 4.2781781,2.5821564 4.285014,2.586322 4.2898968,2.5908844 4.2898968,2.5908844 4.2933148,2.5959351 4.2957562,2.6013214 4.297221,2.6070435 4.2977093,2.6131012 4.2977093,2.6131012 4.297221,2.619159 4.2957562,2.624881 4.2933148,2.6302674 4.2898968,2.635318 4.2898968,2.635318 4.2850903,2.6399262 4.2787274,2.643985 4.2708081,2.6474945 4.2613324,2.6504547 4.2613324,2.6504547 4.2541684,2.6521141 4.2458599,2.6535523 4.2364071,2.6547692 4.2258099,2.6557648 4.2140683,2.6565392 4.2011822,2.6570923 4.1871518,2.6574242 4.1719769,2.6575348 4.1719769,2.6575348 4.1568478,2.6574356 4.1429547,2.6571381 4.1302975,2.6566422 4.1188763,2.6559479 4.1086911,2.6550553 4.0997418,2.6539643 4.0920285,2.6526749 4.0855511,2.6511872 4.0855511,2.6511872 4.0747021,2.6477997 4.0658368,2.643985 4.058955,2.6397431 4.054057,2.6350739 4.054057,2.6350739 4.0505322,2.63013 4.0480145,2.62482 4.0465039,2.6191437 4.0460003,2.6131012z" transform="matrix(1,0,0,-1,0.2342002,4.053489)" stroke="rgb(100,100,100)" stroke-width="0.0010cm" stroke-linecap="round" stroke-linejoin="round" fill="none" /><path d="M4.0789593,2.7756989 L4.0789593,2.7756989 4.0673245,2.7760269 4.0564679,2.7770111 4.0463894,2.7786515 4.0370892,2.7809479 4.0285672,2.7839005 4.0208233,2.7875092 4.0138577,2.791774 4.0076702,2.796695 4.0076702,2.796695 4.0022343,2.8022377 3.9975232,2.8082459 3.9935368,2.8147194 3.9902752,2.8216583 3.9877385,2.8290627 3.9859265,2.8369324 3.9848393,2.8452675 3.9844769,2.854068 3.9844769,2.854068 3.9848393,2.8631508 3.9859265,2.8717224 3.9877385,2.8797829 3.9902752,2.8873322 3.9935368,2.8943703 3.9975232,2.9008972 4.0022343,2.906913 4.0076702,2.9124176 4.0076702,2.9124176 4.0138043,2.9173958 4.0207318,2.9217102 4.0284527,2.9253609 4.0369671,2.9283478 4.046275,2.930671 4.0563763,2.9323303 4.0672711,2.933326 4.0789593,2.9336579 4.0789593,2.9336579 4.0905941,2.933326 4.1014508,2.9323303 4.1115292,2.930671 4.1208294,2.9283478 4.1293515,2.9253609 4.1370953,2.9217102 4.1440609,2.9173958 4.1502484,2.9124176 4.1502484,2.9124176 4.1556843,2.9069321 4.1603955,2.9009735 4.1643818,2.894542 4.1676434,2.8876374 4.1701802,2.8802597 4.1719921,2.8724091 4.1730793,2.8640854 4.1734417,2.8552887 4.1734417,2.8552887 4.1730831,2.8462021 4.1720074,2.837619 4.1702145,2.8295395 4.1677044,2.8219635 4.1644772,2.8148911 4.1605328,2.8083222 4.1558712,2.8022568 4.1504925,2.796695 4.1504925,2.796695 4.1443013,2.791774 4.1373242,2.7875092 4.1295613,2.7839005 4.1210125,2.7809479 4.111678,2.7786515 4.1015576,2.7770111 4.0906514,2.7760269 4.0789593,2.7756989z" transform="matrix(1,0,0,-1,0.2342002,4.053489)" stroke="rgb(100,100,100)" stroke-width="0.0010cm" stroke-linecap="round" stroke-linejoin="round" fill="none" /><path d="M4.078471,2.8291657 L4.078471,2.8291657 4.0868405,2.8292916 4.0944928,2.8296692 4.1014279,2.8302986 4.1076458,2.8311798 4.1131466,2.8323128 4.1179303,2.8336975 4.1219967,2.835334 4.125346,2.8372223 4.125346,2.8372223 4.1291912,2.840564 4.1319378,2.8444855 4.1335858,2.8489868 4.1341351,2.854068 4.1341351,2.854068 4.1335858,2.859256 4.1319378,2.8638336 4.1291912,2.8678009 4.125346,2.8711579 4.125346,2.8711579 4.1219967,2.8729889 4.1179303,2.8745758 4.1131466,2.8759186 4.1076458,2.8770172 4.1014279,2.8778717 4.0944928,2.8784821 4.0868405,2.8788483 4.078471,2.8789704 4.078471,2.8789704 4.0701054,2.8788483 4.0624646,2.8784821 4.0555485,2.8778717 4.0493573,2.8770172 4.0438908,2.8759186 4.0391491,2.8745758 4.0351323,2.8729889 4.0318402,2.8711579 4.0318402,2.8711579 4.0278881,2.8678009 4.0250653,2.8638336 4.0233715,2.859256 4.022807,2.854068 4.022807,2.854068 4.0233563,2.8489868 4.0250042,2.8444855 4.0277508,2.840564 4.031596,2.8372223 4.031596,2.8372223 4.0349453,2.835334 4.0390118,2.8336975 4.0437954,2.8323128 4.0492962,2.8311798 4.0555142,2.8302986 4.0624493,2.8296692 4.0701016,2.8292916 4.078471,2.8291657z" transform="matrix(1,0,0,-1,0.2342002,4.053489)" stroke="rgb(100,100,100)" stroke-width="0.0010cm" stroke-linecap="round" stroke-linejoin="round" fill="none" /><path d="M4.3621624,2.9063141 L4.3621624,2.8555329 3.9844769,3.0462067 3.9844769,3.0955231 4.3621624,2.9063141z" transform="matrix(1,0,0,-1,0.2342002,4.053489)" stroke="rgb(100,100,100)" stroke-width="0.0010cm" stroke-linecap="round" stroke-linejoin="round" fill="none" /><path d="M4.2681683,3.017154 L4.2681683,3.017154 4.2565335,3.017482 4.2456768,3.0184662 4.2355984,3.0201065 4.2262982,3.022403 4.2177761,3.0253556 4.2100323,3.0289643 4.2030667,3.0332291 4.1968792,3.03815 4.1968792,3.03815 4.1914433,3.0437004 4.1867321,3.0497315 4.1827458,3.0562432 4.1794842,3.0632355 4.1769474,3.0707085 4.1751355,3.0786621 4.1740483,3.0870964 4.1736859,3.0960114 4.1736859,3.0960114 4.1740483,3.1049797 4.1751355,3.1134522 4.1769474,3.1214287 4.1794842,3.1289093 4.1827458,3.135894 4.1867321,3.1423828 4.1914433,3.1483757 4.1968792,3.1538727 4.1968792,3.1538727 4.2030667,3.1588509 4.2100323,3.1631653 4.2177761,3.166816 4.2262982,3.1698029 4.2355984,3.172126 4.2456768,3.1737854 4.2565335,3.1747811 4.2681683,3.1751129 4.2681683,3.1751129 4.2798603,3.1747811 4.2907666,3.1737854 4.300887,3.172126 4.3102215,3.1698029 4.3187703,3.166816 4.3265332,3.1631653 4.3335102,3.1588509 4.3397015,3.1538727 4.3397015,3.1538727 4.3451374,3.1483872 4.3498486,3.1424286 4.3538349,3.135997 4.3570965,3.1290924 4.3596333,3.1217148 4.3614453,3.1138642 4.3625325,3.1055405 4.3628949,3.0967438 4.3628949,3.0967438 4.3625325,3.0876572 4.3614453,3.0790741 4.3596333,3.0709946 4.3570965,3.0634186 4.3538349,3.0563462 4.3498486,3.0497772 4.3451374,3.0437119 4.3397015,3.03815 4.3397015,3.03815 4.3335102,3.0332291 4.3265332,3.0289643 4.3187703,3.0253556 4.3102215,3.022403 4.300887,3.0201065 4.2907666,3.0184662 4.2798603,3.017482 4.2681683,3.017154z" transform="matrix(1,0,0,-1,0.2342002,4.053489)" stroke="rgb(100,100,100)" stroke-width="0.0010cm" stroke-linecap="round" stroke-linejoin="round" fill="none" /><path d="M4.2679242,3.0706207 L4.2679242,3.0706207 4.2762898,3.0707466 4.2839306,3.0711243 4.2908467,3.0717537 4.2970379,3.0726349 4.3025044,3.0737679 4.3072461,3.0751526 4.3112629,3.0767891 4.314555,3.0786774 4.314555,3.0786774 4.318507,3.0820191 4.3213299,3.0859406 4.3230236,3.0904419 4.3235882,3.0955231 4.3235882,3.0955231 4.3230389,3.1006958 4.3213909,3.1052277 4.3186444,3.1091187 4.3147992,3.1123688 4.3147992,3.1123688 4.3114498,3.1142571 4.3073834,3.1158936 4.3025998,3.1172783 4.297099,3.1184113 4.290881,3.1192925 4.2839459,3.1199219 4.2762936,3.1202996 4.2679242,3.1204254 4.2679242,3.1204254 4.2595547,3.1203034 4.2519024,3.1199372 4.2449673,3.1193268 4.2387493,3.1184723 4.2332486,3.1173737 4.2284649,3.1160309 4.2243985,3.114444 4.2210492,3.1126129 4.2210492,3.1126129 4.2172039,3.109256 4.2144574,3.1052887 4.2128094,3.1007111 4.2122601,3.0955231 4.2122601,3.0955231 4.2128094,3.0903504 4.2144574,3.0858185 4.2172039,3.0819275 4.2210492,3.0786774 4.2210492,3.0786774 4.2243985,3.0767891 4.2284649,3.0751526 4.2332486,3.0737679 4.2387493,3.0726349 4.2449673,3.0717537 4.2519024,3.0711243 4.2595547,3.0707466 4.2679242,3.0706207z" transform="matrix(1,0,0,-1,0.2342002,4.053489)" stroke="rgb(100,100,100)" stroke-width="0.0010cm" stroke-linecap="round" stroke-linejoin="round" fill="none" /><path d="M3.2619868,1.2063903 L3.2565181,1.2626403 3.2565181,1.2626403 3.2697383,1.2658264 3.2810786,1.2703063 3.2905391,1.2760803 3.2981197,1.2831481 3.2981197,1.2831481 3.3039302,1.291632 3.3080806,1.3014587 3.3105708,1.3126281 3.3114009,1.3251403 3.3114009,1.3251403 3.3106685,1.3382385 3.3084712,1.3496032 3.3048091,1.3592346 3.2996821,1.3671325 3.2996821,1.3671325 3.293481,1.3733703 3.2867915,1.3778259 3.2796138,1.3804992 3.2719478,1.3813903 3.2719478,1.3813903 3.267065,1.3810119 3.2625728,1.3798767 3.2584712,1.3779846 3.2547603,1.3753356 3.2547603,1.3753356 3.2512691,1.3718444 3.248022,1.3672302 3.2450191,1.3614929 3.2422603,1.3546325 3.2422603,1.3546325 3.2412959,1.3516876 3.2401607,1.3479309 3.2388545,1.3433624 3.2373775,1.3379821 3.2357295,1.3317901 3.2339107,1.3247863 3.2319209,1.3169708 3.2297603,1.3083434 3.2297603,1.3083434 3.226797,1.2971557 3.223669,1.2868347 3.2203761,1.2773803 3.2169185,1.2687927 3.2132961,1.2610717 3.2095088,1.2542175 3.2055568,1.2482299 3.20144,1.2431091 3.20144,1.2431091 3.19537,1.2369293 3.1889766,1.2315734 3.1822597,1.2270416 3.1752193,1.2233337 3.1678554,1.2204498 3.160168,1.2183898 3.1521571,1.2171539 3.1438228,1.2167419 3.1438228,1.2167419 3.1330684,1.2175109 3.1226802,1.2198181 3.1126582,1.2236633 3.1030025,1.2290466 3.1030025,1.2290466 3.0940059,1.235968 3.0861567,1.2442321 3.0794551,1.2538391 3.0739009,1.2647888 3.0739009,1.2647888 3.069543,1.2771057 3.0664302,1.2906188 3.0645625,1.3053283 3.06394,1.3212341 3.06394,1.3212341 3.0643092,1.3342925 3.065417,1.3465148 3.0672633,1.3579009 3.0698482,1.3684509 3.0731715,1.3781646 3.0772334,1.3870422 3.0820338,1.3950836 3.0875728,1.4022888 3.0875728,1.4022888 3.0937282,1.4087188 3.1003779,1.4143371 3.1075221,1.4191436 3.1151607,1.4231384 3.1232936,1.4263213 3.1319209,1.4286926 3.1410426,1.430252 3.1506587,1.4309997 3.1531978,1.3731872 3.1531978,1.3731872 3.1429439,1.3707946 3.1342525,1.3673278 3.1271236,1.3627868 3.1215572,1.3571716 3.1215572,1.3571716 3.1172847,1.3503478 3.1142329,1.341986 3.1124019,1.3320861 3.1117915,1.3206481 3.1117915,1.3206481 3.1124385,1.3087341 3.1143794,1.2981872 3.1176143,1.2890075 3.1221431,1.281195 3.1221431,1.281195 3.1257442,1.2771789 3.1299068,1.2743102 3.1346309,1.2725891 3.1399165,1.2720153 3.1399165,1.2720153 3.1448116,1.2725524 3.1493404,1.2741638 3.153503,1.2768493 3.1572993,1.2806091 3.1572993,1.2806091 3.1596065,1.2838317 3.161938,1.2880309 3.164294,1.2932067 3.1666743,1.2993591 3.1690791,1.306488 3.1715083,1.3145934 3.1739619,1.3236755 3.17644,1.3337341 3.17644,1.3337341 3.1789424,1.3439361 3.1814693,1.3534484 3.1840205,1.3622711 3.1865962,1.370404 3.1891963,1.3778472 3.1918208,1.3846008 3.1944698,1.3906646 3.1971431,1.3960388 3.1971431,1.3960388 3.202917,1.4056335 3.2096919,1.4141052 3.2174678,1.4214538 3.2262447,1.4276794 3.2262447,1.4276794 3.2359737,1.4327209 3.2468013,1.436322 3.2587276,1.4384826 3.2717525,1.4392028 3.2717525,1.4392028 3.2838618,1.4383483 3.2955806,1.4357848 3.3069087,1.4315124 3.3178462,1.4255309 3.3178462,1.4255309 3.3279048,1.417987 3.3365962,1.409027 3.3439204,1.3986511 3.3498775,1.3868591 3.3498775,1.3868591 3.3544063,1.37359 3.3576412,1.3587829 3.3595821,1.3424377 3.360229,1.3245544 3.360229,1.3245544 3.3598384,1.3113738 3.3586665,1.2989807 3.3567134,1.2873748 3.353979,1.2765563 3.3504634,1.2665252 3.3461665,1.2572814 3.3410884,1.248825 3.335229,1.2411559 3.335229,1.2411559 3.3285731,1.2342468 3.3212032,1.22807 3.313119,1.2226257 3.3043208,1.2179138 3.2948085,1.2139343 3.2845821,1.2106872 3.2736415,1.2081725 3.2619868,1.2063903z" transform="matrix(1,0,0,-1,0.2342002,4.053489)" stroke="rgb(100,100,100)" stroke-width="0.0010cm" stroke-linecap="round" stroke-linejoin="round" fill="none" /><path d="M3.3188228,1.7183044 L3.3188228,1.7183044 3.3260493,1.7291809 3.3324947,1.7405212 3.3381587,1.7523254 3.3430415,1.7645935 3.3838618,1.7433044 3.3838618,1.7433044 3.3792232,1.730365 3.3731197,1.7177185 3.3731197,1.7177185 3.3724239,1.7165191 3.37102,1.7142883 3.3689082,1.711026 3.3660884,1.7067321 3.3625606,1.7014068 3.3583247,1.69505 3.3533809,1.6876617 3.347729,1.6792419 3.347729,1.6792419 3.3531123,1.664801 3.3569575,1.6496032 3.3592647,1.6336486 3.3600337,1.6169372 3.3600337,1.6169372 3.3594264,1.6008789 3.3576045,1.5857116 3.354568,1.5714355 3.3503169,1.5580505 3.3448512,1.5455566 3.3381709,1.5339538 3.330276,1.5232421 3.3211665,1.5134216 3.3211665,1.5134216 3.3109584,1.5046783 3.2997676,1.4971008 3.2875941,1.4906891 3.274438,1.4854431 3.2602992,1.4813629 3.2451778,1.4784485 3.2290736,1.4766998 3.2119869,1.4761169 3.2119869,1.4761169 3.1949458,1.4767029 3.1788814,1.4784607 3.1637935,1.4813904 3.1496822,1.4854919 3.1365474,1.4907653 3.1243892,1.4972107 3.1132075,1.5048278 3.1030025,1.5136169 3.1030025,1.5136169 3.0938472,1.52341 3.0859126,1.5340393 3.0791987,1.5455047 3.0737056,1.5578064 3.0694331,1.5709442 3.0663814,1.5849182 3.0645503,1.5997284 3.06394,1.6153747 3.06394,1.6153747 3.0645503,1.6308807 3.0663814,1.6455627 3.0694331,1.6594208 3.0737056,1.6724548 3.0791987,1.6846649 3.0859126,1.696051 3.0938472,1.7066131 3.1030025,1.7163513 3.1030025,1.7163513 3.1132075,1.7250946 3.1243892,1.7326721 3.1365474,1.7390838 3.1496822,1.7443298 3.1637935,1.74841 3.1788814,1.7513245 3.1949458,1.7530731 3.2119869,1.753656 3.2119869,1.753656 3.22998,1.753009 3.2468501,1.7510681 3.2625972,1.7478332 3.2772212,1.7433044 3.2772212,1.7433044 3.2878779,1.7388122 3.2983638,1.7331482 3.3086787,1.7263122 3.3188228,1.7183044z" transform="matrix(1,0,0,-1,0.2342002,4.053489)" stroke="rgb(100,100,100)" stroke-width="0.0010cm" stroke-linecap="round" stroke-linejoin="round" fill="none" /><path d="M3.2862056,1.67182 L3.2862056,1.67182 3.2793208,1.6770324 3.2717525,1.6815368 3.2635005,1.6853332 3.254565,1.6884216 3.254565,1.6884216 3.2449458,1.6908996 3.2346431,1.6926696 3.2236568,1.6937316 3.2119869,1.6940856 3.2119869,1.6940856 3.1999782,1.6937438 3.1887569,1.6927185 3.1783229,1.6910095 3.1686763,1.6886169 3.1598171,1.6855407 3.1517452,1.681781 3.1444606,1.6773376 3.1379634,1.6722107 3.1379634,1.6722107 3.1321956,1.6665314 3.1271968,1.6604309 3.1229671,1.6539093 3.1195064,1.6469665 3.1168147,1.6396026 3.1148921,1.6318176 3.1137386,1.6236114 3.113354,1.6149841 3.113354,1.6149841 3.1137386,1.6063537 3.1148921,1.5981384 3.1168147,1.5903381 3.1195064,1.5829528 3.1229671,1.5759826 3.1271968,1.5694275 3.1321956,1.5632873 3.1379634,1.5575622 3.1379634,1.5575622 3.1445033,1.5524353 3.1518184,1.5479919 3.1599086,1.5442321 3.168774,1.541156 3.1784145,1.5387634 3.1888301,1.5370544 3.2000209,1.536029 3.2119869,1.5356872 3.2119869,1.5356872 3.224142,1.536029 3.2355098,1.5370544 3.2460902,1.5387634 3.2558833,1.541156 3.2648891,1.5442321 3.2731074,1.5479919 3.2805385,1.5524353 3.2871822,1.5575622 3.2871822,1.5575622 3.2929957,1.5632599 3.2980342,1.5693176 3.3022975,1.5757354 3.3057857,1.5825134 3.3084987,1.5896515 3.3104365,1.5971496 3.3115993,1.6050079 3.3119868,1.6132263 3.3119868,1.6132263 3.3109614,1.6253845 3.3078853,1.6368591 3.3078853,1.6368591 3.3024409,1.6280334 3.2976314,1.6191345 3.2934566,1.6101623 3.2899165,1.6011169 3.2569087,1.6173279 3.2569087,1.6173279 3.2624019,1.631427 3.2691157,1.6452087 3.2770503,1.6586731 3.2862056,1.67182z" transform="matrix(1,0,0,-1,0.2342002,4.053489)" stroke="rgb(100,100,100)" stroke-width="0.0010cm" stroke-linecap="round" stroke-linejoin="round" fill="none" /><path d="M3.1395259,1.7872497 L3.1395259,1.7872497 3.130218,1.7875121 3.1215327,1.7882995 3.11347,1.7896117 3.1060298,1.7914489 3.0992122,1.793811 3.0930171,1.7966979 3.0874446,1.8001098 3.0824947,1.8040466 3.0824947,1.8040466 3.0781459,1.8084808 3.074377,1.8132873 3.0711879,1.8184661 3.0685787,1.8240173 3.0665492,1.8299407 3.0650997,1.8362365 3.0642299,1.8429046 3.06394,1.849945 3.06394,1.849945 3.0642299,1.8572112 3.0650997,1.8640685 3.0665492,1.8705169 3.0685787,1.8765563 3.0711879,1.8821868 3.074377,1.8874084 3.0781459,1.892221 3.0824947,1.8966247 3.0824947,1.8966247 3.0874019,1.9006072 3.0929439,1.9040588 3.0991206,1.9069793 3.1059322,1.9093688 3.1133784,1.9112274 3.1214595,1.9125549 3.1301753,1.9133514 3.1395259,1.9136169 3.1395259,1.9136169 3.1488338,1.9133514 3.1575191,1.9125549 3.1655818,1.9112274 3.173022,1.9093688 3.1798396,1.9069793 3.1860347,1.9040588 3.1916072,1.9006072 3.1965571,1.8966247 3.1965571,1.8966247 3.2009059,1.8922363 3.2046748,1.8874694 3.2078639,1.8823242 3.2104732,1.8768005 3.2125026,1.8708984 3.2139522,1.8646179 3.2148219,1.8579589 3.2151118,1.8509216 3.2151118,1.8509216 3.214825,1.8436523 3.2139644,1.8367858 3.21253,1.8303222 3.210522,1.8242614 3.2079402,1.8186035 3.2047847,1.8133483 3.2010554,1.808496 3.1967525,1.8040466 3.1967525,1.8040466 3.1917995,1.8001098 3.1862178,1.7966979 3.1800075,1.793811 3.1731685,1.7914489 3.1657008,1.7896117 3.1576045,1.7882995 3.1488795,1.7875121 3.1395259,1.7872497z" transform="matrix(1,0,0,-1,0.2342002,4.053489)" stroke="rgb(100,100,100)" stroke-width="0.0010cm" stroke-linecap="round" stroke-linejoin="round" fill="none" /><path d="M3.1391353,1.8300232 L3.1391353,1.8300232 3.1458308,1.8301239 3.1519527,1.830426 3.1575008,1.8309295 3.1624751,1.8316345 3.1668758,1.8325408 3.1707027,1.8336486 3.1739558,1.8349578 3.1766353,1.8364684 3.1766353,1.8364684 3.1797114,1.8391418 3.1819087,1.842279 3.1832271,1.8458801 3.1836665,1.849945 3.1836665,1.849945 3.1832271,1.8540954 3.1819087,1.8577575 3.1797114,1.8609313 3.1766353,1.8636169 3.1766353,1.8636169 3.1739558,1.8650817 3.1707027,1.8663513 3.1668758,1.8674255 3.1624751,1.8683044 3.1575008,1.868988 3.1519527,1.8694763 3.1458308,1.8697692 3.1391353,1.8698669 3.1391353,1.8698669 3.1324428,1.8697692 3.1263301,1.8694763 3.1207973,1.868988 3.1158443,1.8683044 3.1114711,1.8674255 3.1076778,1.8663513 3.1044643,1.8650817 3.1018306,1.8636169 3.1018306,1.8636169 3.098669,1.8609313 3.0964107,1.8577575 3.0950557,1.8540954 3.094604,1.849945 3.094604,1.849945 3.0950435,1.8458801 3.0963619,1.842279 3.0985591,1.8391418 3.1016353,1.8364684 3.1016353,1.8364684 3.1043147,1.8349578 3.1075679,1.8336486 3.1113948,1.8325408 3.1157954,1.8316345 3.1207698,1.8309295 3.1263179,1.830426 3.1324397,1.8301239 3.1391353,1.8300232z" transform="matrix(1,0,0,-1,0.2342002,4.053489)" stroke="rgb(100,100,100)" stroke-width="0.0010cm" stroke-linecap="round" stroke-linejoin="round" fill="none" /><path d="M3.3660884,1.8917419 L3.3660884,1.8511169 3.06394,2.003656 3.06394,2.043109 3.3660884,1.8917419z" transform="matrix(1,0,0,-1,0.2342002,4.053489)" stroke="rgb(100,100,100)" stroke-width="0.0010cm" stroke-linecap="round" stroke-linejoin="round" fill="none" /><path d="M3.2908931,1.9804138 L3.2908931,1.9804138 3.2815852,1.9806762 3.2728999,1.9814636 3.2648372,1.9827758 3.257397,1.984613 3.2505794,1.986975 3.2443843,1.989862 3.2388118,1.9932739 3.2338618,1.9972106 3.2338618,1.9972106 3.2295131,2.0016509 3.2257442,2.0064758 3.2225551,2.0116851 3.2199458,2.017279 3.2179164,2.0232574 3.2164668,2.0296203 3.2155971,2.0363677 3.2153071,2.0434997 3.2153071,2.0434997 3.2155971,2.0506744 3.2164668,2.0574523 3.2179164,2.0638336 3.2199458,2.0698181 3.2225551,2.0754058 3.2257442,2.0805969 3.2295131,2.0853912 3.2338618,2.0897888 3.2338618,2.0897888 3.2388118,2.0937713 3.2443843,2.0972229 3.2505794,2.1001434 3.257397,2.1025329 3.2648372,2.1043915 3.2728999,2.105719 3.2815852,2.1065155 3.2908931,2.106781 3.2908931,2.106781 3.3002467,2.1065155 3.3089717,2.105719 3.317068,2.1043915 3.3245357,2.1025329 3.3313746,2.1001434 3.337585,2.0972229 3.3431666,2.0937713 3.3481196,2.0897888 3.3481196,2.0897888 3.3524684,2.0854004 3.3562373,2.0806335 3.3594264,2.0754882 3.3620357,2.0699645 3.3640651,2.0640624 3.3655147,2.0577819 3.3663844,2.051123 3.3666743,2.0440856 3.3666743,2.0440856 3.3663844,2.0368163 3.3655147,2.0299499 3.3640651,2.0234863 3.3620357,2.0174255 3.3594264,2.0117675 3.3562373,2.0065124 3.3524684,2.0016601 3.3481196,1.9972106 3.3481196,1.9972106 3.3431666,1.9932739 3.337585,1.989862 3.3313746,1.986975 3.3245357,1.984613 3.317068,1.9827758 3.3089717,1.9814636 3.3002467,1.9806762 3.2908931,1.9804138z" transform="matrix(1,0,0,-1,0.2342002,4.053489)" stroke="rgb(100,100,100)" stroke-width="0.0010cm" stroke-linecap="round" stroke-linejoin="round" fill="none" /><path d="M3.2906978,2.0231872 L3.2906978,2.0231872 3.2973903,2.0232879 3.303503,2.02359 3.3090358,2.0240936 3.3139888,2.0247985 3.318362,2.0257049 3.3221553,2.0268127 3.3253688,2.0281219 3.3280025,2.0296326 3.3280025,2.0296326 3.3311641,2.0323059 3.3334224,2.0354431 3.3347774,2.0390441 3.335229,2.043109 3.335229,2.043109 3.3347896,2.0472472 3.3334712,2.0508727 3.331274,2.0539855 3.3281978,2.0565857 3.3281978,2.0565857 3.3255183,2.0580963 3.3222652,2.0594055 3.3184383,2.0605133 3.3140376,2.0614196 3.3090633,2.0621246 3.3035152,2.0626281 3.2973933,2.0629302 3.2906978,2.0630309 3.2906978,2.0630309 3.2840022,2.0629333 3.2778804,2.0626403 3.2723323,2.062152 3.2673579,2.0614684 3.2629573,2.0605895 3.2591304,2.0595153 3.2558772,2.0582458 3.2531978,2.0567809 3.2531978,2.0567809 3.2501216,2.0540954 3.2479243,2.0509215 3.246606,2.0472594 3.2461665,2.043109 3.2461665,2.043109 3.246606,2.0389709 3.2479243,2.0353454 3.2501216,2.0322326 3.2531978,2.0296326 3.2531978,2.0296326 3.2558772,2.0281219 3.2591304,2.0268127 3.2629573,2.0257049 3.2673579,2.0247985 3.2723323,2.0240936 3.2778804,2.02359 3.2840022,2.0232879 3.2906978,2.0231872z" transform="matrix(1,0,0,-1,0.2342002,4.053489)" stroke="rgb(100,100,100)" stroke-width="0.0010cm" stroke-linecap="round" stroke-linejoin="round" fill="none" /></svg>